<svg width="20" height="19" viewBox="0 0 20 19" fill="none" xmlns="http://www.w3.org/2000/svg">
<path d="M14.948 4.38964C14.3157 3.37349 13.5917 2.56373 12.796 1.98291C11.9025 1.3307 10.9618 1 10 1C9.0382 1 8.09748 1.3307 7.20406 1.98291C6.40837 2.56373 5.68429 3.37349 5.05207 4.38964C3.84112 6.33584 3.11816 8.84454 3.11816 11.1004C3.11816 12.2294 3.29753 13.2522 3.65131 14.1404C3.9912 14.9938 4.49225 15.726 5.14053 16.3168C6.34881 17.418 8.02918 18 10 18C11.9708 18 13.6512 17.418 14.8595 16.3168C15.5077 15.726 16.0088 14.9938 16.3487 14.1404C16.7025 13.2522 16.8818 12.2294 16.8818 11.1004C16.8818 8.84454 16.1589 6.33584 14.948 4.38964ZM10 17.0039C6.3512 17.0039 4.17285 14.797 4.17285 11.1004C4.17285 9.01424 4.84145 6.69417 5.96136 4.89429C7.10734 3.05242 8.57937 1.99609 10 1.99609C11.4206 1.99609 12.8927 3.05242 14.0386 4.89429C15.1585 6.69417 15.8271 9.01424 15.8271 11.1004C15.8271 14.797 13.6488 17.0039 10 17.0039Z" 
fill="black"/>
</svg>
