<svg width="111" height="24" viewBox="0 0 111 24" fill="none" xmlns="http://www.w3.org/2000/svg">
<path fill-rule="evenodd" clip-rule="evenodd" d="M24 12C24 18.6272 18.6272 24 12 24C5.37285 24 0 18.6272 0 12C0 5.37285 5.37285 0 12 0C18.6272 0 24 5.37285 24 12Z" fill="#3B5998"/>
<path fill-rule="evenodd" clip-rule="evenodd" d="M14.2201 12.0295H12.6143V18.0653H10.1815V12.0295H9.02441V9.90762H10.1815V8.53508C10.1815 7.55367 10.6357 6.01611 12.6363 6.01611L14.4379 6.02414V8.08326H13.1307C12.9159 8.08326 12.6143 8.19333 12.6143 8.66121V9.91009H14.4333L14.2201 12.0295Z" fill="white"/>
<path d="M55.6445 12.6045H51.4678V17H50.1553V7.04688H56.3213V8.12695H51.4678V11.5312H55.6445V12.6045ZM62.0293 17C61.9564 16.8542 61.8971 16.5944 61.8516 16.2207C61.2637 16.8314 60.5618 17.1367 59.7461 17.1367C59.0169 17.1367 58.4176 16.9316 57.9482 16.5215C57.4834 16.1068 57.251 15.5827 57.251 14.9492C57.251 14.179 57.5426 13.582 58.126 13.1582C58.7139 12.7298 59.5387 12.5156 60.6006 12.5156H61.8311V11.9346C61.8311 11.4925 61.6989 11.1416 61.4346 10.8818C61.1702 10.6175 60.7806 10.4854 60.2656 10.4854C59.8145 10.4854 59.4362 10.5993 59.1309 10.8271C58.8255 11.055 58.6729 11.3307 58.6729 11.6543H57.4014C57.4014 11.2852 57.5312 10.9297 57.791 10.5879C58.0553 10.2415 58.4108 9.9681 58.8574 9.76758C59.3086 9.56706 59.8031 9.4668 60.3408 9.4668C61.193 9.4668 61.8607 9.68099 62.3438 10.1094C62.8268 10.5332 63.0775 11.1188 63.0957 11.8662V15.2705C63.0957 15.9495 63.1823 16.4896 63.3555 16.8906V17H62.0293ZM59.9307 16.0361C60.3271 16.0361 60.7031 15.9336 61.0586 15.7285C61.4141 15.5234 61.6715 15.2568 61.8311 14.9287V13.4111H60.8398C59.2904 13.4111 58.5156 13.8646 58.5156 14.7715C58.5156 15.168 58.6478 15.4779 58.9121 15.7012C59.1764 15.9245 59.516 16.0361 59.9307 16.0361ZM68.0449 16.1045C68.4961 16.1045 68.8903 15.9678 69.2275 15.6943C69.5648 15.4209 69.7516 15.0791 69.7881 14.6689H70.9844C70.9616 15.0928 70.8158 15.4961 70.5469 15.8789C70.278 16.2617 69.918 16.5671 69.4668 16.7949C69.0202 17.0228 68.5462 17.1367 68.0449 17.1367C67.0378 17.1367 66.2357 16.8018 65.6387 16.1318C65.0462 15.4574 64.75 14.5368 64.75 13.3701V13.1582C64.75 12.4382 64.8822 11.7979 65.1465 11.2373C65.4108 10.6768 65.7891 10.2415 66.2812 9.93164C66.778 9.62174 67.3636 9.4668 68.0381 9.4668C68.8675 9.4668 69.5557 9.71517 70.1025 10.2119C70.654 10.7087 70.9479 11.3535 70.9844 12.1465H69.7881C69.7516 11.668 69.5693 11.276 69.2412 10.9707C68.9176 10.6608 68.5166 10.5059 68.0381 10.5059C67.3955 10.5059 66.8965 10.7383 66.541 11.2031C66.1901 11.6634 66.0146 12.3311 66.0146 13.2061V13.4453C66.0146 14.2975 66.1901 14.9538 66.541 15.4141C66.8919 15.8743 67.3932 16.1045 68.0449 16.1045ZM75.4756 17.1367C74.473 17.1367 73.6572 16.8086 73.0283 16.1523C72.3994 15.4915 72.085 14.6097 72.085 13.5068V13.2744C72.085 12.5407 72.224 11.8867 72.502 11.3125C72.7845 10.7337 73.1764 10.2826 73.6777 9.95898C74.1836 9.63086 74.7305 9.4668 75.3184 9.4668C76.2799 9.4668 77.0273 9.78353 77.5605 10.417C78.0938 11.0505 78.3604 11.9574 78.3604 13.1377V13.6641H73.3496C73.3678 14.3932 73.5798 14.9834 73.9854 15.4346C74.3955 15.8812 74.915 16.1045 75.5439 16.1045C75.9906 16.1045 76.3688 16.0133 76.6787 15.8311C76.9886 15.6488 77.2598 15.4072 77.4922 15.1064L78.2646 15.708C77.6449 16.6605 76.7152 17.1367 75.4756 17.1367ZM75.3184 10.5059C74.8079 10.5059 74.3796 10.6927 74.0332 11.0664C73.6868 11.4355 73.4727 11.9551 73.3906 12.625H77.0957V12.5293C77.0592 11.8867 76.8861 11.39 76.5762 11.0391C76.2663 10.6836 75.847 10.5059 75.3184 10.5059ZM80.0283 17V7.04688H83.2822C84.3623 7.04688 85.1735 7.27018 85.7158 7.7168C86.2627 8.16341 86.5361 8.82422 86.5361 9.69922C86.5361 10.1641 86.404 10.5765 86.1396 10.9365C85.8753 11.292 85.5153 11.5677 85.0596 11.7637C85.5973 11.9141 86.0212 12.2012 86.3311 12.625C86.6455 13.0443 86.8027 13.5456 86.8027 14.1289C86.8027 15.0221 86.5133 15.724 85.9346 16.2344C85.3558 16.7448 84.5378 17 83.4805 17H80.0283ZM81.3408 12.3447V15.9268H83.5078C84.1185 15.9268 84.5993 15.7695 84.9502 15.4551C85.3057 15.1361 85.4834 14.6986 85.4834 14.1426C85.4834 12.944 84.8317 12.3447 83.5283 12.3447H81.3408ZM81.3408 11.292H83.3232C83.8975 11.292 84.3555 11.1484 84.6973 10.8613C85.0436 10.5742 85.2168 10.1846 85.2168 9.69238C85.2168 9.14551 85.0573 8.74902 84.7383 8.50293C84.4193 8.25228 83.9339 8.12695 83.2822 8.12695H81.3408V11.292ZM88.2178 13.2334C88.2178 12.5088 88.359 11.8571 88.6416 11.2783C88.9287 10.6995 89.3252 10.2529 89.8311 9.93848C90.3415 9.62402 90.9225 9.4668 91.5742 9.4668C92.5814 9.4668 93.3949 9.81543 94.0146 10.5127C94.639 11.21 94.9512 12.1374 94.9512 13.2949V13.3838C94.9512 14.1038 94.8122 14.751 94.5342 15.3252C94.2607 15.8949 93.8665 16.3392 93.3516 16.6582C92.8411 16.9772 92.2533 17.1367 91.5879 17.1367C90.5853 17.1367 89.7718 16.7881 89.1475 16.0908C88.5277 15.3936 88.2178 14.4707 88.2178 13.3223V13.2334ZM89.4893 13.3838C89.4893 14.2041 89.6784 14.8626 90.0566 15.3594C90.4395 15.8561 90.9499 16.1045 91.5879 16.1045C92.2305 16.1045 92.7409 15.8538 93.1191 15.3525C93.4974 14.8467 93.6865 14.1403 93.6865 13.2334C93.6865 12.4222 93.4928 11.766 93.1055 11.2646C92.7227 10.7588 92.2122 10.5059 91.5742 10.5059C90.9499 10.5059 90.4463 10.7542 90.0635 11.251C89.6807 11.7477 89.4893 12.4587 89.4893 13.3838ZM96.2021 13.2334C96.2021 12.5088 96.3434 11.8571 96.626 11.2783C96.9131 10.6995 97.3096 10.2529 97.8154 9.93848C98.3258 9.62402 98.9069 9.4668 99.5586 9.4668C100.566 9.4668 101.379 9.81543 101.999 10.5127C102.623 11.21 102.936 12.1374 102.936 13.2949V13.3838C102.936 14.1038 102.797 14.751 102.519 15.3252C102.245 15.8949 101.851 16.3392 101.336 16.6582C100.826 16.9772 100.238 17.1367 99.5723 17.1367C98.5697 17.1367 97.7562 16.7881 97.1318 16.0908C96.512 15.3936 96.2021 14.4707 96.2021 13.3223V13.2334ZM97.4736 13.3838C97.4736 14.2041 97.6628 14.8626 98.041 15.3594C98.4238 15.8561 98.9342 16.1045 99.5723 16.1045C100.215 16.1045 100.725 15.8538 101.104 15.3525C101.482 14.8467 101.671 14.1403 101.671 13.2334C101.671 12.4222 101.477 11.766 101.09 11.2646C100.707 10.7588 100.197 10.5059 99.5586 10.5059C98.9342 10.5059 98.4307 10.7542 98.0479 11.251C97.665 11.7477 97.4736 12.4587 97.4736 13.3838ZM106.586 13.5752L105.793 14.4023V17H104.528V6.5H105.793V12.8506L106.47 12.0371L108.773 9.60352H110.312L107.434 12.6934L110.646 17H109.163L106.586 13.5752Z" fill="#EEEEEE"/>
</svg>
