<svg width="110" height="24" viewBox="0 0 110 24" fill="none" xmlns="http://www.w3.org/2000/svg">
<path fill-rule="evenodd" clip-rule="evenodd" d="M18 16.08C17.24 16.08 16.56 16.38 16.04 16.85L8.91 12.7C8.96 12.47 9 12.24 9 12C9 11.76 8.96 11.53 8.91 11.3L15.96 7.19C16.5 7.69 17.21 8 18 8C19.66 8 21 6.66 21 5C21 3.34 19.66 2 18 2C16.34 2 15 3.34 15 5C15 5.24 15.04 5.47 15.09 5.7L8.04 9.81C7.5 9.31 6.79 9 6 9C4.34 9 3 10.34 3 12C3 13.66 4.34 15 6 15C6.79 15 7.5 14.69 8.04 14.19L15.16 18.35C15.11 18.56 15.08 18.78 15.08 19C15.08 20.61 16.39 21.92 18 21.92C19.61 21.92 20.92 20.61 20.92 19C20.92 17.39 19.61 16.08 18 16.08ZM18 4C18.55 4 19 4.45 19 5C19 5.55 18.55 6 18 6C17.45 6 17 5.55 17 5C17 4.45 17.45 4 18 4ZM6 13C5.45 13 5 12.55 5 12C5 11.45 5.45 11 6 11C6.55 11 7 11.45 7 12C7 12.55 6.55 13 6 13ZM18 20.02C17.45 20.02 17 19.57 17 19.02C17 18.47 17.45 18.02 18 18.02C18.55 18.02 19 18.47 19 19.02C19 19.57 18.55 20.02 18 20.02Z" fill="#EEEEEE"/>
<path d="M57.4766 13.8418C57.3535 14.8945 56.9639 15.708 56.3076 16.2822C55.6559 16.8519 54.7878 17.1367 53.7031 17.1367C52.5273 17.1367 51.584 16.7152 50.873 15.8721C50.1667 15.029 49.8135 13.901 49.8135 12.4883V11.5312C49.8135 10.6061 49.9775 9.79264 50.3057 9.09082C50.6383 8.389 51.1077 7.85124 51.7139 7.47754C52.32 7.09928 53.0218 6.91016 53.8193 6.91016C54.8766 6.91016 55.7243 7.20638 56.3623 7.79883C57.0003 8.38672 57.3717 9.20247 57.4766 10.2461H56.1572C56.0433 9.45312 55.7949 8.87891 55.4121 8.52344C55.0339 8.16797 54.5029 7.99023 53.8193 7.99023C52.9808 7.99023 52.3223 8.30013 51.8438 8.91992C51.3698 9.53971 51.1328 10.4215 51.1328 11.5654V12.5293C51.1328 13.6094 51.3584 14.4684 51.8096 15.1064C52.2607 15.7445 52.8919 16.0635 53.7031 16.0635C54.4323 16.0635 54.9906 15.8994 55.3779 15.5713C55.7699 15.2386 56.0296 14.6621 56.1572 13.8418H57.4766ZM58.7412 13.2334C58.7412 12.5088 58.8825 11.8571 59.165 11.2783C59.4521 10.6995 59.8486 10.2529 60.3545 9.93848C60.8649 9.62402 61.446 9.4668 62.0977 9.4668C63.1048 9.4668 63.9183 9.81543 64.5381 10.5127C65.1624 11.21 65.4746 12.1374 65.4746 13.2949V13.3838C65.4746 14.1038 65.3356 14.751 65.0576 15.3252C64.7842 15.8949 64.39 16.3392 63.875 16.6582C63.3646 16.9772 62.7767 17.1367 62.1113 17.1367C61.1087 17.1367 60.2952 16.7881 59.6709 16.0908C59.0511 15.3936 58.7412 14.4707 58.7412 13.3223V13.2334ZM60.0127 13.3838C60.0127 14.2041 60.2018 14.8626 60.5801 15.3594C60.9629 15.8561 61.4733 16.1045 62.1113 16.1045C62.7539 16.1045 63.2643 15.8538 63.6426 15.3525C64.0208 14.8467 64.21 14.1403 64.21 13.2334C64.21 12.4222 64.0163 11.766 63.6289 11.2646C63.2461 10.7588 62.7357 10.5059 62.0977 10.5059C61.4733 10.5059 60.9697 10.7542 60.5869 11.251C60.2041 11.7477 60.0127 12.4587 60.0127 13.3838ZM73.3086 13.3838C73.3086 14.5094 73.0511 15.4163 72.5361 16.1045C72.0212 16.7926 71.3239 17.1367 70.4443 17.1367C69.5465 17.1367 68.8402 16.8519 68.3252 16.2822V19.8438H67.0605V9.60352H68.2158L68.2773 10.4238C68.7923 9.78581 69.5078 9.4668 70.4238 9.4668C71.3125 9.4668 72.0143 9.80176 72.5293 10.4717C73.0488 11.1416 73.3086 12.0736 73.3086 13.2676V13.3838ZM72.0439 13.2402C72.0439 12.4062 71.8662 11.7477 71.5107 11.2646C71.1553 10.7816 70.6676 10.54 70.0479 10.54C69.2822 10.54 68.708 10.8796 68.3252 11.5586V15.0928C68.7035 15.7673 69.2822 16.1045 70.0615 16.1045C70.6676 16.1045 71.1484 15.8652 71.5039 15.3867C71.8639 14.9036 72.0439 14.1882 72.0439 13.2402ZM77.2598 15.1475L78.9824 9.60352H80.3359L77.3623 18.1416C76.902 19.3721 76.1706 19.9873 75.168 19.9873L74.9287 19.9668L74.457 19.8779V18.8525L74.7988 18.8799C75.2272 18.8799 75.5599 18.7933 75.7969 18.6201C76.0384 18.4469 76.2367 18.1302 76.3916 17.6699L76.6719 16.918L74.0332 9.60352H75.4141L77.2598 15.1475ZM86.4609 15.9268H91.1777V17H85.1416V7.04688H86.4609V15.9268ZM93.8506 17H92.5859V9.60352H93.8506V17ZM92.4834 7.6416C92.4834 7.43652 92.5449 7.26335 92.668 7.12207C92.7956 6.98079 92.9824 6.91016 93.2285 6.91016C93.4746 6.91016 93.6615 6.98079 93.7891 7.12207C93.9167 7.26335 93.9805 7.43652 93.9805 7.6416C93.9805 7.84668 93.9167 8.01758 93.7891 8.1543C93.6615 8.29102 93.4746 8.35938 93.2285 8.35938C92.9824 8.35938 92.7956 8.29102 92.668 8.1543C92.5449 8.01758 92.4834 7.84668 92.4834 7.6416ZM97.0771 9.60352L97.1182 10.5332C97.6833 9.82227 98.4215 9.4668 99.333 9.4668C100.896 9.4668 101.685 10.3486 101.698 12.1123V17H100.434V12.1055C100.429 11.5723 100.306 11.1781 100.064 10.9229C99.8275 10.6676 99.4561 10.54 98.9502 10.54C98.54 10.54 98.18 10.6494 97.8701 10.8682C97.5602 11.0869 97.3187 11.374 97.1455 11.7295V17H95.8809V9.60352H97.0771ZM105.67 13.5752L104.877 14.4023V17H103.612V6.5H104.877V12.8506L105.554 12.0371L107.857 9.60352H109.396L106.518 12.6934L109.73 17H108.247L105.67 13.5752Z" fill="#EEEEEE"/>
</svg>
