<svg width="132" height="132" viewBox="0 0 132 132" fill="none" xmlns="http://www.w3.org/2000/svg">
<rect width="132" height="132" rx="5"/>
<path d="M16.5371 111V103.891H18.8271C19.4554 103.891 20.0202 104.034 20.5215 104.32C21.0228 104.604 21.4134 105.006 21.6934 105.526C21.9766 106.044 22.1198 106.625 22.123 107.27V107.597C22.123 108.248 21.9847 108.832 21.708 109.35C21.4346 109.864 21.0472 110.268 20.5459 110.561C20.0479 110.85 19.4912 110.997 18.876 111H16.5371ZM18.251 105.214V109.682H18.8467C19.3382 109.682 19.7158 109.507 19.9795 109.159C20.2432 108.808 20.375 108.287 20.375 107.597V107.289C20.375 106.602 20.2432 106.085 19.9795 105.736C19.7158 105.388 19.3317 105.214 18.8271 105.214H18.251ZM22.7188 108.31C22.7188 107.782 22.8213 107.313 23.0264 106.903C23.2314 106.49 23.526 106.173 23.9102 105.951C24.2943 105.73 24.7451 105.619 25.2627 105.619C26.0537 105.619 26.6771 105.865 27.1328 106.356C27.5885 106.845 27.8164 107.51 27.8164 108.354V108.412C27.8164 109.236 27.5869 109.89 27.1279 110.375C26.6722 110.857 26.0537 111.098 25.2725 111.098C24.5205 111.098 23.9167 110.873 23.4609 110.424C23.0052 109.971 22.7594 109.359 22.7236 108.588L22.7188 108.31ZM24.3643 108.412C24.3643 108.9 24.4408 109.258 24.5938 109.486C24.7467 109.714 24.973 109.828 25.2725 109.828C25.8584 109.828 26.1579 109.377 26.1709 108.476V108.31C26.1709 107.362 25.8682 106.889 25.2627 106.889C24.7126 106.889 24.4147 107.297 24.3691 108.114L24.3643 108.412ZM32.7676 111H31.1172V105.717H32.7676V111ZM31.0195 104.354C31.0195 104.12 31.1042 103.928 31.2734 103.778C31.4427 103.629 31.6624 103.554 31.9326 103.554C32.2028 103.554 32.4225 103.629 32.5918 103.778C32.7611 103.928 32.8457 104.12 32.8457 104.354C32.8457 104.589 32.7611 104.781 32.5918 104.931C32.4225 105.08 32.2028 105.155 31.9326 105.155C31.6624 105.155 31.4427 105.08 31.2734 104.931C31.1042 104.781 31.0195 104.589 31.0195 104.354ZM35.7021 104.403V105.717H36.5713V106.859H35.7021V109.276C35.7021 109.475 35.738 109.613 35.8096 109.691C35.8812 109.77 36.0228 109.809 36.2344 109.809C36.3971 109.809 36.5339 109.799 36.6445 109.779V110.956C36.3483 111.05 36.0391 111.098 35.7168 111.098C35.1504 111.098 34.7321 110.964 34.4619 110.697C34.1917 110.43 34.0566 110.025 34.0566 109.481V106.859H33.3828V105.717H34.0566V104.403H35.7021Z" fill="white"/>
<path d="M17.6289 116.312L19.4883 120.953L21.3477 116.312H22.3203V122H21.5703V119.785L21.6406 117.395L19.7734 122H19.1992L17.3359 117.406L17.4102 119.785V122H16.6602V116.312H17.6289ZM24.3164 122H23.5938V117.773H24.3164V122ZM23.5352 116.652C23.5352 116.535 23.5703 116.436 23.6406 116.355C23.7135 116.275 23.8203 116.234 23.9609 116.234C24.1016 116.234 24.2083 116.275 24.2812 116.355C24.3542 116.436 24.3906 116.535 24.3906 116.652C24.3906 116.77 24.3542 116.867 24.2812 116.945C24.2083 117.023 24.1016 117.062 23.9609 117.062C23.8203 117.062 23.7135 117.023 23.6406 116.945C23.5703 116.867 23.5352 116.77 23.5352 116.652ZM26.2617 122H25.5391V116H26.2617V122ZM28.207 122H27.4844V117.773H28.207V122ZM27.4258 116.652C27.4258 116.535 27.4609 116.436 27.5312 116.355C27.6042 116.275 27.7109 116.234 27.8516 116.234C27.9922 116.234 28.099 116.275 28.1719 116.355C28.2448 116.436 28.2812 116.535 28.2812 116.652C28.2812 116.77 28.2448 116.867 28.1719 116.945C28.099 117.023 27.9922 117.062 27.8516 117.062C27.7109 117.062 27.6042 117.023 27.5312 116.945C27.4609 116.867 27.4258 116.77 27.4258 116.652ZM31.9766 122C31.9349 121.917 31.901 121.768 31.875 121.555C31.5391 121.904 31.138 122.078 30.6719 122.078C30.2552 122.078 29.9128 121.961 29.6445 121.727C29.3789 121.49 29.2461 121.19 29.2461 120.828C29.2461 120.388 29.4128 120.047 29.7461 119.805C30.082 119.56 30.5534 119.438 31.1602 119.438H31.8633V119.105C31.8633 118.853 31.7878 118.652 31.6367 118.504C31.4857 118.353 31.263 118.277 30.9688 118.277C30.7109 118.277 30.4948 118.342 30.3203 118.473C30.1458 118.603 30.0586 118.76 30.0586 118.945H29.332C29.332 118.734 29.4062 118.531 29.5547 118.336C29.7057 118.138 29.9089 117.982 30.1641 117.867C30.4219 117.753 30.7044 117.695 31.0117 117.695C31.4987 117.695 31.8802 117.818 32.1562 118.062C32.4323 118.305 32.5755 118.639 32.5859 119.066V121.012C32.5859 121.4 32.6354 121.708 32.7344 121.938V122H31.9766ZM30.7773 121.449C31.0039 121.449 31.2188 121.391 31.4219 121.273C31.625 121.156 31.7721 121.004 31.8633 120.816V119.949H31.2969C30.4115 119.949 29.9688 120.208 29.9688 120.727C29.9688 120.953 30.0443 121.13 30.1953 121.258C30.3464 121.385 30.5404 121.449 30.7773 121.449ZM34.4023 117.773L34.4258 118.305C34.7487 117.898 35.1706 117.695 35.6914 117.695C36.5846 117.695 37.0352 118.199 37.043 119.207V122H36.3203V119.203C36.3177 118.898 36.2474 118.673 36.1094 118.527C35.974 118.382 35.7617 118.309 35.4727 118.309C35.2383 118.309 35.0326 118.371 34.8555 118.496C34.6784 118.621 34.5404 118.785 34.4414 118.988V122H33.7188V117.773H34.4023ZM40.9844 121.387H43.6797V122H40.2305V116.312H40.9844V121.387ZM46.8594 121.582C46.5781 121.913 46.1654 122.078 45.6211 122.078C45.1706 122.078 44.8268 121.948 44.5898 121.688C44.3555 121.424 44.237 121.036 44.2344 120.523V117.773H44.957V120.504C44.957 121.145 45.2174 121.465 45.7383 121.465C46.2904 121.465 46.6576 121.259 46.8398 120.848V117.773H47.5625V122H46.875L46.8594 121.582ZM51.2734 121.582C50.9922 121.913 50.5794 122.078 50.0352 122.078C49.5846 122.078 49.2409 121.948 49.0039 121.688C48.7695 121.424 48.651 121.036 48.6484 120.523V117.773H49.3711V120.504C49.3711 121.145 49.6315 121.465 50.1523 121.465C50.7044 121.465 51.0716 121.259 51.2539 120.848V117.773H51.9766V122H51.2891L51.2734 121.582Z" fill="white"/>
</svg>
