<svg width="21" height="15" viewBox="0 0 21 15" fill="none" xmlns="http://www.w3.org/2000/svg">
<path d="M21 11.382L17.7271 15L14.4309 11.3657L15.588 10.0793L16.8952 11.5206V2.72839C16.8967 2.48874 16.8134 2.2631 16.6607 2.09299C16.5065 1.9211 16.3007 1.82655 16.0812 1.82655H7.25336L5.6068 0.010998H16.0812C16.7408 0.010998 17.3597 0.296058 17.824 0.813318C18.2861 1.32845 18.5384 2.01139 18.5349 2.73708V11.5415L19.8413 10.0972L21 11.382ZM13.4515 13.1734H4.91883C4.69917 13.1734 4.49345 13.0789 4.33932 12.9072C4.18664 12.7371 4.10332 12.5113 4.10477 12.2716V3.47944L5.41198 4.92071L6.56907 3.6343L3.27292 0L0 3.61816L1.15869 4.90279L2.4651 3.45869V12.2629C2.46158 12.9886 2.71392 13.6717 3.17599 14.1867C3.6403 14.7039 4.25922 14.989 4.91883 14.989H15.3932L13.7466 13.1734H13.4515Z" 
fill="black"/>
</svg>
