<svg width="30" height="20" viewBox="0 0 30 20" fill="none" xmlns="http://www.w3.org/2000/svg">
<path fill-rule="evenodd" clip-rule="evenodd" d="M28.9927 1.52274C28.9946 1.51194 28.9978 1.50113 28.9988 1.49033C29.002 1.45702 28.9983 1.42326 28.9941 1.3895C28.9932 1.38095 28.9946 1.37285 28.9932 1.3643C28.9848 1.31974 28.9694 1.27607 28.9465 1.23421C28.9428 1.22701 28.9377 1.22026 28.9335 1.21306C28.9326 1.21216 28.9326 1.21081 28.9321 1.20946C28.9316 1.20856 28.9302 1.20811 28.9298 1.20676C28.9265 1.2018 28.9237 1.1964 28.9204 1.1919C28.8915 1.15094 28.8566 1.11718 28.8174 1.08837C28.8086 1.08207 28.7983 1.07847 28.789 1.07262C28.7545 1.05056 28.7181 1.03256 28.679 1.02041C28.6617 1.015 28.6445 1.0123 28.6267 1.00915C28.5927 1.0024 28.5587 0.99925 28.5232 1.00015C28.5046 1.0006 28.4869 1.0015 28.4682 1.0042C28.4561 1.006 28.4445 1.0042 28.4323 1.0069L1.37196 6.40654C1.17943 6.44525 1.03211 6.59604 1.00461 6.78419C0.977103 6.97234 1.07454 7.15689 1.24842 7.24557L9.00207 11.1945L10.3619 18.4806C10.361 18.486 10.3624 18.4918 10.3619 18.4972C10.3573 18.5332 10.3568 18.5683 10.3615 18.6039C10.3638 18.6219 10.3661 18.639 10.3708 18.6566C10.3815 18.6993 10.3988 18.7394 10.4221 18.7772C10.4267 18.7844 10.4267 18.7929 10.4319 18.8001C10.4333 18.8024 10.4356 18.8042 10.4375 18.806C10.4435 18.8146 10.4519 18.8213 10.4589 18.8299C10.4808 18.856 10.5037 18.8798 10.5298 18.9001C10.534 18.9032 10.5368 18.9082 10.5414 18.9113C10.5484 18.9163 10.5563 18.9176 10.5633 18.9221C10.5918 18.9401 10.6211 18.955 10.6524 18.9667C10.665 18.9712 10.6766 18.9766 10.6897 18.9802C10.7316 18.9919 10.775 19 10.8188 19C10.8193 19 10.8197 19 10.8202 19C10.8221 19 10.8239 18.9991 10.8258 18.9991C10.8337 18.9995 10.8417 19 10.8496 19C10.9787 19 11.0953 18.9442 11.1815 18.8582L16.3464 15.5336L21.7542 18.9275C21.8306 18.9752 21.9192 19 22.0083 19C22.0572 19 22.1071 18.9923 22.1551 18.977C22.2894 18.9338 22.3966 18.8339 22.4455 18.7052L28.9703 1.60556C28.9764 1.59026 28.9815 1.5745 28.9857 1.5583C28.9876 1.55155 28.988 1.5448 28.9894 1.53849C28.9908 1.53354 28.9918 1.52814 28.9927 1.52274ZM23.5933 4.39589L12.408 12.3365C12.3899 12.3495 12.3754 12.3657 12.3596 12.381C12.3535 12.3864 12.3474 12.3909 12.3423 12.3968C12.3325 12.4071 12.3237 12.4175 12.3148 12.4287C12.3064 12.4395 12.2999 12.4508 12.2924 12.462C12.2752 12.489 12.2607 12.517 12.2495 12.5467C12.2472 12.5525 12.2435 12.557 12.2416 12.5629C12.2412 12.5647 12.2393 12.5656 12.2388 12.5674L10.9568 16.5901L9.94098 11.1477L23.5933 4.39589ZM11.6794 17.4561L12.9502 13.4032L14.9287 14.6451L15.4947 15.0002L13.5721 16.2376L11.6794 17.4561ZM25.2623 2.5588L9.42443 10.3913L2.83253 7.03434L25.2623 2.5588ZM21.7728 17.8659L14.5912 13.3592L13.5036 12.6764L27.561 2.69636L21.7728 17.8659Z" fill="#000000"/>
<path d="M28.9927 1.52274L29.4854 1.60782L29.4854 1.60773L28.9927 1.52274ZM28.9988 1.49033L28.5011 1.4416L28.5006 1.44732L28.9988 1.49033ZM28.9941 1.3895L28.497 1.44372L28.4979 1.45118L28.9941 1.3895ZM28.9932 1.3643L29.4868 1.28361L29.4845 1.27176L28.9932 1.3643ZM28.9465 1.23421L28.5024 1.46416L28.5076 1.47371L28.9465 1.23421ZM28.9335 1.21306L29.3655 0.961344L29.3306 0.901445L29.2807 0.8533L28.9335 1.21306ZM28.9321 1.20946L29.4048 1.04654L29.3928 1.01175L29.3759 0.9791L28.9321 1.20946ZM28.9298 1.20676L29.4025 1.04384L29.3819 0.984233L29.3472 0.931593L28.9298 1.20676ZM28.9204 1.1919L28.5119 1.4802L28.5156 1.48539L28.9204 1.1919ZM28.8174 1.08837L29.1137 0.685565L29.1073 0.680958L28.8174 1.08837ZM28.789 1.07262L28.5196 1.4939L28.5232 1.49612L28.789 1.07262ZM28.679 1.02041L28.5295 1.49756L28.5308 1.49794L28.679 1.02041ZM28.6267 1.00915L28.5294 1.49969L28.5392 1.50143L28.6267 1.00915ZM28.5232 1.00015L28.5353 1.50001L28.5359 1.49999L28.5232 1.00015ZM28.4682 1.0042L28.3966 0.509362L28.3948 0.509628L28.4682 1.0042ZM28.4323 1.0069L28.5302 1.49736L28.5411 1.49494L28.4323 1.0069ZM1.37196 6.40654L1.27412 5.91621L1.27341 5.91635L1.37196 6.40654ZM1.00461 6.78419L1.49935 6.85652H1.49935L1.00461 6.78419ZM1.24842 7.24557L1.02128 7.69099L1.02151 7.69111L1.24842 7.24557ZM9.00207 11.1945L9.49358 11.1027L9.44841 10.8607L9.22899 10.7489L9.00207 11.1945ZM10.3619 18.4806L10.8547 18.5656L10.8699 18.4771L10.8535 18.3888L10.3619 18.4806ZM10.3619 18.4972L10.8578 18.5614L10.8592 18.5508L10.8601 18.5402L10.3619 18.4972ZM10.3615 18.6039L10.8573 18.5397L10.8572 18.5389L10.3615 18.6039ZM10.3708 18.6566L10.8558 18.5349L10.8541 18.5282L10.3708 18.6566ZM10.4221 18.7772L9.99636 19.0396L10.0024 19.0489L10.4221 18.7772ZM10.4319 18.8001L10.8566 18.5363L10.8483 18.5229L10.8392 18.5101L10.4319 18.8001ZM10.4375 18.806L10.8454 18.5169L10.8184 18.4788L10.7848 18.4463L10.4375 18.806ZM10.4589 18.8299L10.0718 19.1464L10.0759 19.1513L10.4589 18.8299ZM10.5298 18.9001L10.2232 19.2952L10.2295 19.2999L10.5298 18.9001ZM10.5414 18.9113L10.8304 18.5032L10.8214 18.4971L10.5414 18.9113ZM10.5633 18.9221L10.2927 19.3426L10.2959 19.3446L10.5633 18.9221ZM10.6524 18.9667L10.4769 19.435L10.484 19.4375L10.6524 18.9667ZM10.6897 18.9802L10.824 18.4986L10.8226 18.4982L10.6897 18.9802ZM10.8258 18.9991L10.8542 18.4999L10.84 18.4991H10.8258V18.9991ZM11.1815 18.8582L10.9109 18.4378L10.8662 18.4666L10.8285 18.5041L11.1815 18.8582ZM16.3464 15.5336L16.6122 15.1101L16.343 14.9412L16.0758 15.1132L16.3464 15.5336ZM21.7542 18.9275L21.4884 19.351L21.4895 19.3517L21.7542 18.9275ZM22.1551 18.977L22.3069 19.4534L22.3083 19.453L22.1551 18.977ZM22.4455 18.7052L21.9784 18.5269L21.9782 18.5275L22.4455 18.7052ZM28.9703 1.60556L28.5054 1.42148L28.5032 1.42731L28.9703 1.60556ZM28.9857 1.5583L28.5037 1.42526L28.5017 1.43296L28.9857 1.5583ZM28.9894 1.53849L28.5082 1.40262L28.5044 1.41631L28.5013 1.4302L28.9894 1.53849ZM23.5933 4.39589L23.8827 4.8036L23.3717 3.9477L23.5933 4.39589ZM12.408 12.3365L12.1186 11.9287L12.1164 11.9303L12.408 12.3365ZM12.3596 12.381L12.6922 12.7543L12.6997 12.7477L12.7069 12.7407L12.3596 12.381ZM12.3423 12.3968L12.7056 12.7403L12.7121 12.7334L12.7184 12.7263L12.3423 12.3968ZM12.3148 12.4287L11.9219 12.1195L11.9199 12.122L12.3148 12.4287ZM12.2924 12.462L11.8756 12.1858L11.871 12.1929L12.2924 12.462ZM12.2495 12.5467L12.7141 12.7317L12.7175 12.7229L12.2495 12.5467ZM12.2416 12.5629L11.7652 12.411L11.761 12.4242L11.7576 12.4376L12.2416 12.5629ZM12.2388 12.5674L12.7152 12.7192L12.7194 12.706L12.7229 12.6927L12.2388 12.5674ZM10.9568 16.5901L10.4653 16.6818L11.4332 16.7419L10.9568 16.5901ZM9.94098 11.1477L9.71933 10.6995L9.38001 10.8673L9.44947 11.2394L9.94098 11.1477ZM11.6794 17.4561L11.2023 17.3065L10.7892 18.6238L11.95 17.8765L11.6794 17.4561ZM12.9502 13.4032L13.216 12.9797L12.6671 12.6351L12.4731 13.2536L12.9502 13.4032ZM14.9287 14.6451L14.6629 15.0686L14.663 15.0686L14.9287 14.6451ZM15.4947 15.0002L15.7653 15.4207L16.4268 14.9949L15.7604 14.5767L15.4947 15.0002ZM13.5721 16.2376L13.3015 15.8172L13.3015 15.8172L13.5721 16.2376ZM25.2623 2.5588L25.4839 3.00699L25.1644 2.06847L25.2623 2.5588ZM9.42443 10.3913L9.19753 10.8369L9.42115 10.9508L9.64608 10.8395L9.42443 10.3913ZM2.83253 7.03434L2.73469 6.54401L1.32158 6.82598L2.60563 7.4799L2.83253 7.03434ZM21.7728 17.8659L21.5071 18.2894L22.0229 18.6131L22.24 18.0441L21.7728 17.8659ZM14.5912 13.3592L14.3253 13.7827L14.3254 13.7828L14.5912 13.3592ZM13.5036 12.6764L13.2141 12.2687L12.6039 12.702L13.2377 13.0999L13.5036 12.6764ZM27.561 2.69636L28.0282 2.87461L28.6159 1.33424L27.2716 2.28866L27.561 2.69636ZM29.4854 1.60773C29.4842 1.6149 29.4831 1.61986 29.4831 1.62007C29.483 1.62019 29.4831 1.6201 29.4834 1.61854C29.4836 1.61741 29.4842 1.6148 29.4848 1.61199C29.4869 1.60253 29.4936 1.57167 29.4969 1.53334L28.5006 1.44732C28.5019 1.4325 28.5037 1.42073 28.505 1.41338C28.5062 1.40622 28.5073 1.40128 28.5073 1.40108C28.5073 1.40097 28.5073 1.40106 28.507 1.40263C28.5067 1.40377 28.5062 1.40638 28.5055 1.40921C28.5043 1.41481 28.5021 1.42518 28.5 1.43775L29.4854 1.60773ZM29.4964 1.53906C29.5057 1.44344 29.4941 1.35822 29.4903 1.32783L28.4979 1.45118C28.4989 1.4588 28.4994 1.46353 28.4998 1.46721C28.5002 1.47073 28.5002 1.47177 28.5002 1.47119C28.5001 1.47038 28.4994 1.45913 28.5011 1.44161L29.4964 1.53906ZM29.4911 1.3353C29.4933 1.3547 29.4936 1.36999 29.4937 1.37793C29.4938 1.38192 29.4937 1.38485 29.4937 1.38568C29.4937 1.38612 29.4937 1.38635 29.4937 1.38599C29.4937 1.38591 29.4937 1.38476 29.4938 1.38389C29.4938 1.38058 29.494 1.3675 29.4934 1.35154C29.4928 1.33467 29.4911 1.3112 29.4866 1.28363L28.4997 1.44496C28.4959 1.42167 28.4946 1.40243 28.4941 1.38974C28.4939 1.38341 28.4938 1.37832 28.4938 1.37509C28.4938 1.37345 28.4938 1.37215 28.4938 1.3713C28.4938 1.37048 28.4939 1.36994 28.4939 1.36992C28.4939 1.3699 28.4939 1.36994 28.4939 1.37012C28.4938 1.37022 28.4938 1.37031 28.4938 1.37046C28.4938 1.37059 28.4938 1.37076 28.4938 1.37094C28.4938 1.37161 28.4938 1.37289 28.4938 1.37437C28.4938 1.37729 28.4937 1.38231 28.4938 1.38839C28.4939 1.40052 28.4945 1.42004 28.497 1.44371L29.4911 1.3353ZM29.4845 1.27176C29.4665 1.1758 29.4334 1.08255 29.3855 0.994714L28.5076 1.47371C28.5054 1.4696 28.5031 1.46367 28.5018 1.45684L29.4845 1.27176ZM29.3906 1.00432C29.3829 0.989539 29.3758 0.97741 29.3706 0.96885C29.3655 0.960494 29.3611 0.953688 29.3591 0.950729C29.3586 0.949908 29.3581 0.949171 29.3578 0.948671C29.3574 0.948054 29.3573 0.947869 29.3571 0.94757C29.3568 0.947062 29.357 0.947466 29.3575 0.948234C29.3584 0.949668 29.3615 0.954537 29.3655 0.961344L28.5015 1.46477C28.5075 1.47518 28.5129 1.48359 28.516 1.48854C28.5177 1.49107 28.5191 1.49322 28.5199 1.49446C28.5211 1.49636 28.5208 1.49592 28.5212 1.49654C28.5216 1.49707 28.5194 1.49375 28.5165 1.48891C28.5134 1.48387 28.5083 1.47529 28.5025 1.46411L29.3906 1.00432ZM29.2807 0.8533C29.3748 0.944129 29.4052 1.04499 29.4138 1.07556C29.4171 1.08732 29.4211 1.10406 29.4183 1.09282C29.4174 1.08874 29.4128 1.06985 29.4048 1.04654L28.4594 1.37237C28.4516 1.34974 28.4472 1.33152 28.4464 1.3281C28.4439 1.31752 28.4479 1.33491 28.4514 1.3473C28.4604 1.3791 28.4912 1.48109 28.5863 1.57281L29.2807 0.8533ZM29.3759 0.9791C29.3562 0.94127 29.3347 0.911591 29.3166 0.889806C29.2988 0.86834 29.2826 0.852423 29.2721 0.842669C29.2618 0.833115 29.2533 0.826078 29.2511 0.824246C29.2501 0.823407 29.2486 0.822183 29.2495 0.822919C29.2498 0.823138 29.2514 0.824468 29.2534 0.826199C29.2604 0.832037 29.2869 0.854417 29.3152 0.888578C29.3458 0.925466 29.3794 0.976978 29.4025 1.04384L28.457 1.36967C28.4803 1.43721 28.5143 1.48928 28.5453 1.52666C28.574 1.56132 28.601 1.58412 28.6084 1.59035C28.6106 1.59218 28.6123 1.59361 28.6127 1.59392C28.6137 1.59475 28.6123 1.59362 28.6114 1.59288C28.6095 1.59124 28.6012 1.58438 28.5911 1.57502C28.5808 1.56546 28.5648 1.54973 28.5471 1.52847C28.5292 1.50689 28.5078 1.47742 28.4883 1.43981L29.3759 0.9791ZM29.3472 0.931593C29.3512 0.937578 29.354 0.942141 29.3549 0.943694C29.3554 0.944523 29.3557 0.945033 29.3555 0.944747C29.3554 0.944578 29.3554 0.944466 29.3551 0.944016C29.3549 0.943657 29.3545 0.943083 29.3542 0.942441C29.3528 0.940192 29.3494 0.934424 29.345 0.927537C29.3405 0.920509 29.3338 0.910272 29.3252 0.898412L28.5156 1.48539C28.5087 1.47578 28.5035 1.46791 28.5006 1.46331C28.4991 1.46092 28.4979 1.45901 28.4972 1.45782C28.4968 1.45721 28.4965 1.45673 28.4964 1.45641C28.4962 1.4561 28.496 1.4559 28.496 1.45588C28.496 1.45587 28.4961 1.45593 28.4962 1.45621C28.4963 1.45639 28.4967 1.45692 28.4969 1.45739C28.4975 1.45838 28.4986 1.46016 28.4999 1.46226C28.5024 1.46636 28.5067 1.47346 28.5123 1.48192L29.3472 0.931593ZM29.329 0.903624C29.2644 0.812117 29.1892 0.741133 29.1137 0.685616L28.5211 1.49113C28.5228 1.49237 28.5222 1.49206 28.5201 1.49004C28.518 1.48793 28.515 1.48461 28.5119 1.48018L29.329 0.903624ZM29.1073 0.680958C29.0864 0.666138 29.0679 0.655128 29.0545 0.647638C29.0417 0.640451 29.0308 0.635005 29.0271 0.633156C29.0204 0.629843 29.0248 0.632038 29.0275 0.63345C29.0319 0.635747 29.042 0.641135 29.0548 0.649124L28.5232 1.49612C28.5406 1.50703 28.5555 1.51506 28.5647 1.51988C28.5693 1.52232 28.5733 1.52431 28.5757 1.5255C28.5769 1.5261 28.5779 1.52664 28.5786 1.52694C28.5793 1.52732 28.5795 1.52741 28.5797 1.5275C28.58 1.52766 28.5786 1.52699 28.5766 1.52593C28.5745 1.52483 28.571 1.52298 28.5666 1.52052C28.5579 1.51566 28.544 1.50746 28.5276 1.49579L29.1073 0.680958ZM29.0583 0.651357C28.9935 0.609905 28.9166 0.570638 28.8272 0.542875L28.5308 1.49794C28.5196 1.49448 28.5155 1.49122 28.5196 1.49388L29.0583 0.651357ZM28.8284 0.543251C28.773 0.525913 28.7168 0.51732 28.7143 0.516879L28.5392 1.50143C28.5421 1.50195 28.5449 1.50244 28.547 1.5028C28.5493 1.5032 28.5508 1.50347 28.5522 1.50372C28.5549 1.50421 28.5553 1.50429 28.5545 1.50414C28.553 1.50384 28.5433 1.50187 28.5295 1.49756L28.8284 0.543251ZM28.724 0.518713C28.6557 0.505162 28.5848 0.498425 28.5105 0.500312L28.5359 1.49999C28.5347 1.50002 28.5331 1.49998 28.5315 1.49984C28.5299 1.4997 28.5292 1.49954 28.5294 1.49959L28.724 0.518713ZM28.5112 0.500296C28.4847 0.500935 28.4441 0.502476 28.3966 0.509365L28.5399 1.49904C28.5296 1.50053 28.5245 1.50027 28.5353 1.50001L28.5112 0.500296ZM28.3948 0.509628C28.4149 0.506642 28.4306 0.505769 28.438 0.505452C28.4418 0.505293 28.4444 0.505242 28.4447 0.505236C28.4449 0.505233 28.4448 0.505234 28.4441 0.505247C28.4436 0.505255 28.4422 0.505278 28.4408 0.505304C28.4358 0.505398 28.4203 0.505679 28.4015 0.507189C28.3816 0.508778 28.3547 0.511933 28.3236 0.51887L28.5411 1.49494C28.516 1.50052 28.4951 1.50289 28.4813 1.504C28.4744 1.50455 28.4688 1.50482 28.4653 1.50496C28.4635 1.50503 28.4621 1.50507 28.4612 1.50509C28.4603 1.50511 28.4598 1.50512 28.4598 1.50512C28.4597 1.50513 28.4598 1.50512 28.46 1.50512C28.4603 1.50512 28.4605 1.50511 28.4609 1.5051C28.4617 1.50509 28.4632 1.50507 28.4648 1.50503C28.468 1.50497 28.4737 1.50484 28.4804 1.50455C28.4938 1.50399 28.5155 1.50266 28.5417 1.49878L28.3948 0.509628ZM28.3345 0.516569L1.27412 5.91621L1.46981 6.89688L28.5302 1.49724L28.3345 0.516569ZM1.27341 5.91635C0.884646 5.99451 0.569491 6.304 0.509867 6.71187L1.49935 6.85652C1.49474 6.88808 1.47421 6.89599 1.47052 6.89673L1.27341 5.91635ZM0.509867 6.71187C0.450292 7.11939 0.663058 7.50832 1.02128 7.69099L1.47557 6.80014C1.48602 6.80547 1.50391 6.8253 1.49935 6.85652L0.509867 6.71187ZM1.02151 7.69111L8.77516 11.64L9.22899 10.7489L1.47534 6.80002L1.02151 7.69111ZM8.51056 11.2862L9.87043 18.5723L10.8535 18.3888L9.49358 11.1027L8.51056 11.2862ZM9.86923 18.3955C9.86296 18.4318 9.86173 18.4622 9.86162 18.4821C9.86152 18.5012 9.86252 18.5165 9.86273 18.5199C9.8628 18.521 9.86286 18.522 9.86287 18.5221C9.86289 18.5225 9.86287 18.522 9.86283 18.5214C9.86276 18.5203 9.86253 18.5165 9.86234 18.5114C9.86199 18.5018 9.86149 18.4809 9.8638 18.4542L10.8601 18.5402C10.8614 18.5251 10.8619 18.5119 10.862 18.5011C10.8621 18.4904 10.8619 18.4814 10.8617 18.4748C10.8614 18.4683 10.8611 18.4631 10.861 18.4605C10.8609 18.4592 10.8608 18.4581 10.8608 18.4578C10.8608 18.4572 10.8608 18.4575 10.8608 18.4579C10.8609 18.4586 10.8611 18.4621 10.8613 18.4667C10.8614 18.4714 10.8617 18.4785 10.8616 18.4873C10.8615 18.5044 10.8605 18.532 10.8547 18.5656L9.86923 18.3955ZM9.86608 18.433C9.85652 18.5069 9.85481 18.5857 9.86572 18.6689L10.8572 18.5389C10.858 18.5445 10.8582 18.5496 10.8582 18.554C10.8582 18.5583 10.8579 18.5609 10.8578 18.5614L9.86608 18.433ZM9.86561 18.6681C9.86775 18.6846 9.87345 18.7318 9.88755 18.7849L10.8541 18.5282C10.8568 18.5384 10.8581 18.5458 10.8584 18.548C10.8586 18.5491 10.8586 18.5492 10.8584 18.5477C10.8582 18.5461 10.8579 18.5439 10.8573 18.5397L9.86561 18.6681ZM9.88582 18.7782C9.90965 18.8732 9.94772 18.9605 9.99646 19.0396L10.8477 18.5148C10.8486 18.5162 10.85 18.5188 10.8516 18.5226C10.8533 18.5264 10.8547 18.5306 10.8558 18.5349L9.88582 18.7782ZM10.0024 19.0489C9.97893 19.0127 9.96521 18.9807 9.95774 18.9611C9.95405 18.9515 9.95151 18.9438 9.95028 18.94C9.94935 18.9371 9.94831 18.9338 9.94932 18.937C9.94978 18.9385 9.95171 18.9448 9.95427 18.9523C9.95694 18.9602 9.961 18.9716 9.96654 18.985C9.9778 19.0123 9.99586 19.0498 10.0246 19.0902L10.8392 18.5101C10.8653 18.5469 10.8815 18.5806 10.8911 18.6041C10.8959 18.6156 10.8992 18.625 10.9012 18.631C10.9023 18.634 10.903 18.6364 10.9035 18.6379C10.9038 18.6387 10.904 18.6393 10.9041 18.6397C10.9042 18.6401 10.9043 18.6403 10.9043 18.6403C10.9045 18.641 10.9039 18.639 10.9036 18.6382C10.9032 18.6368 10.9024 18.6343 10.9015 18.6314C10.8996 18.6257 10.8964 18.6161 10.892 18.6045C10.883 18.5811 10.8676 18.5453 10.8418 18.5055L10.0024 19.0489ZM10.0071 19.064C10.04 19.1168 10.0752 19.1513 10.0872 19.1629C10.0909 19.1665 10.094 19.1694 10.096 19.1712C10.0978 19.1729 10.0994 19.1744 10.0995 19.1745C10.1013 19.1761 10.096 19.1713 10.0901 19.1657L10.7848 18.4463C10.7809 18.4426 10.7777 18.4396 10.7758 18.4378C10.7748 18.4369 10.774 18.4362 10.7734 18.4357C10.773 18.4352 10.7725 18.4348 10.7725 18.4348C10.7712 18.4337 10.7761 18.4381 10.7818 18.4436C10.7918 18.4533 10.8252 18.4857 10.8566 18.5363L10.0071 19.064ZM10.0295 19.0951C10.0444 19.1161 10.0583 19.1326 10.0685 19.1441C10.0783 19.1551 10.0867 19.1638 10.0898 19.1669C10.0952 19.1725 10.0919 19.169 10.0904 19.1675C10.0875 19.1644 10.0805 19.1569 10.0718 19.1464L10.846 18.5134C10.8339 18.4985 10.8232 18.4869 10.8165 18.4799C10.8132 18.4764 10.8103 18.4734 10.8086 18.4717C10.8078 18.4709 10.807 18.47 10.8066 18.4696C10.8061 18.4691 10.8059 18.469 10.8059 18.4689C10.8057 18.4688 10.8068 18.4699 10.8085 18.4716C10.8102 18.4734 10.8129 18.4764 10.8163 18.4802C10.823 18.4877 10.8336 18.5002 10.8454 18.5169L10.0295 19.0951ZM10.0759 19.1513C10.1106 19.1926 10.159 19.2453 10.2233 19.2951L10.8363 18.505C10.8426 18.5099 10.8462 18.5135 10.847 18.5143C10.8477 18.515 10.8462 18.5136 10.8419 18.5084L10.0759 19.1513ZM10.2295 19.2999C10.2023 19.2794 10.1831 19.2605 10.1733 19.2504C10.1683 19.2452 10.1645 19.241 10.1629 19.2392C10.1621 19.2383 10.16 19.236 10.1623 19.2385C10.1634 19.2398 10.1668 19.2435 10.171 19.2481C10.1754 19.2528 10.1817 19.2595 10.1896 19.2671C10.2053 19.2824 10.2293 19.3039 10.2614 19.3256L10.8214 18.4971C10.8512 18.5172 10.8731 18.5369 10.8868 18.5502C10.8937 18.5569 10.8991 18.5626 10.9026 18.5663C10.9059 18.5699 10.9083 18.5726 10.9085 18.5729C10.9086 18.573 10.9087 18.573 10.9086 18.5729C10.9085 18.5728 10.9083 18.5726 10.908 18.5723C10.9075 18.5717 10.9065 18.5706 10.9052 18.5691C10.9027 18.5664 10.898 18.5612 10.8921 18.5551C10.886 18.5488 10.8778 18.5406 10.8677 18.5314C10.8575 18.5222 10.8449 18.5115 10.83 18.5002L10.2295 19.2999ZM10.2525 19.3194C10.2819 19.3402 10.3086 19.3546 10.328 19.3641C10.3461 19.3729 10.3614 19.379 10.3638 19.38C10.3667 19.3811 10.3645 19.3803 10.3633 19.3798C10.3613 19.3789 10.3566 19.3769 10.3505 19.3742C10.3384 19.3686 10.3173 19.3584 10.2927 19.3425L10.834 18.5017C10.8058 18.4836 10.7812 18.4715 10.7654 18.4643C10.7575 18.4607 10.751 18.4579 10.7471 18.4563C10.7451 18.4555 10.7434 18.4548 10.7425 18.4544C10.742 18.4542 10.7416 18.4541 10.7413 18.454C10.7412 18.4539 10.7411 18.4539 10.7411 18.4539C10.741 18.4538 10.741 18.4538 10.741 18.4538C10.741 18.4538 10.7412 18.4539 10.7414 18.454C10.7417 18.4541 10.7421 18.4543 10.7427 18.4545C10.7437 18.455 10.7453 18.4556 10.7474 18.4565C10.7514 18.4583 10.7578 18.4611 10.7656 18.4649C10.7814 18.4725 10.8044 18.4849 10.8304 18.5033L10.2525 19.3194ZM10.2959 19.3446C10.3513 19.3796 10.4113 19.4103 10.477 19.4349L10.8278 18.4985C10.831 18.4997 10.8323 18.5006 10.8308 18.4997L10.2959 19.3446ZM10.484 19.4375C10.4806 19.4363 10.4787 19.4355 10.4801 19.436C10.4808 19.4363 10.4815 19.4366 10.4835 19.4374C10.4852 19.4381 10.4878 19.4391 10.4907 19.4402C10.5017 19.4445 10.5261 19.4537 10.5567 19.4622L10.8226 18.4982C10.8318 18.5007 10.8391 18.5031 10.8439 18.5048C10.8484 18.5063 10.8513 18.5075 10.851 18.5074C10.8508 18.5073 10.8504 18.5071 10.849 18.5066C10.848 18.5062 10.8456 18.5052 10.8433 18.5043C10.8386 18.5025 10.8304 18.4994 10.8207 18.4959L10.484 19.4375ZM10.5553 19.4618C10.6238 19.4809 10.7146 19.5 10.8188 19.5V18.5C10.8276 18.5 10.8328 18.5008 10.8334 18.5009C10.8339 18.501 10.8311 18.5006 10.824 18.4986L10.5553 19.4618ZM10.8188 19.5C10.8188 19.5 10.8188 19.5 10.8188 19.5C10.8188 19.5 10.8188 19.5 10.8188 19.5C10.8188 19.5 10.8188 19.5 10.8188 19.5C10.8188 19.5 10.8188 19.5 10.8188 19.5C10.8188 19.5 10.8188 19.5 10.8188 19.5C10.8188 19.5 10.8188 19.5 10.8188 19.5C10.8188 19.5 10.8188 19.5 10.8188 19.5C10.8188 19.5 10.8188 19.5 10.8188 19.5C10.8188 19.5 10.8188 19.5 10.8188 19.5C10.8188 19.5 10.8188 19.5 10.8188 19.5C10.8188 19.5 10.8188 19.5 10.8188 19.5C10.8188 19.5 10.8188 19.5 10.8188 19.5C10.8188 19.5 10.8188 19.5 10.8188 19.5C10.8188 19.5 10.8188 19.5 10.8188 19.5C10.8188 19.5 10.8188 19.5 10.8188 19.5C10.8188 19.5 10.8189 19.5 10.8189 19.5C10.8189 19.5 10.8189 19.5 10.8189 19.5C10.8189 19.5 10.8189 19.5 10.8189 19.5C10.8189 19.5 10.8189 19.5 10.8189 19.5C10.8189 19.5 10.8189 19.5 10.8189 19.5C10.8189 19.5 10.8189 19.5 10.8189 19.5C10.8189 19.5 10.8189 19.5 10.8189 19.5C10.8189 19.5 10.8189 19.5 10.8189 19.5C10.8189 19.5 10.8189 19.5 10.8189 19.5C10.8189 19.5 10.8189 19.5 10.8189 19.5C10.8189 19.5 10.8189 19.5 10.8189 19.5C10.8189 19.5 10.8189 19.5 10.8189 19.5C10.8189 19.5 10.8189 19.5 10.8189 19.5C10.8189 19.5 10.8189 19.5 10.8189 19.5C10.8189 19.5 10.8189 19.5 10.8189 19.5C10.8189 19.5 10.8189 19.5 10.8189 19.5C10.8189 19.5 10.8189 19.5 10.8189 19.5C10.8189 19.5 10.8189 19.5 10.8189 19.5C10.8189 19.5 10.8189 19.5 10.8189 19.5C10.8189 19.5 10.8189 19.5 10.8189 19.5C10.8189 19.5 10.8189 19.5 10.8189 19.5C10.8189 19.5 10.8189 19.5 10.8189 19.5C10.8189 19.5 10.8189 19.5 10.8189 19.5C10.8189 19.5 10.8189 19.5 10.8189 19.5C10.8189 19.5 10.8189 19.5 10.8189 19.5C10.8189 19.5 10.8189 19.5 10.8189 19.5C10.8189 19.5 10.8189 19.5 10.8189 19.5C10.8189 19.5 10.8189 19.5 10.8189 19.5C10.8189 19.5 10.8189 19.5 10.8189 19.5C10.8189 19.5 10.8189 19.5 10.8189 19.5C10.8189 19.5 10.8189 19.5 10.8189 19.5C10.8189 19.5 10.8189 19.5 10.8189 19.5C10.8189 19.5 10.8189 19.5 10.8189 19.5C10.8189 19.5 10.8189 19.5 10.8189 19.5C10.8189 19.5 10.8189 19.5 10.8189 19.5C10.8189 19.5 10.8189 19.5 10.8189 19.5C10.8189 19.5 10.8189 19.5 10.8189 19.5C10.819 19.5 10.819 19.5 10.819 19.5C10.819 19.5 10.819 19.5 10.819 19.5C10.819 19.5 10.819 19.5 10.819 19.5C10.819 19.5 10.819 19.5 10.819 19.5C10.819 19.5 10.819 19.5 10.819 19.5C10.819 19.5 10.819 19.5 10.819 19.5C10.819 19.5 10.819 19.5 10.819 19.5C10.819 19.5 10.819 19.5 10.819 19.5C10.819 19.5 10.819 19.5 10.819 19.5C10.819 19.5 10.819 19.5 10.819 19.5C10.819 19.5 10.819 19.5 10.819 19.5C10.819 19.5 10.819 19.5 10.819 19.5C10.819 19.5 10.819 19.5 10.819 19.5C10.819 19.5 10.819 19.5 10.819 19.5C10.819 19.5 10.819 19.5 10.819 19.5C10.819 19.5 10.819 19.5 10.819 19.5C10.819 19.5 10.819 19.5 10.819 19.5C10.819 19.5 10.819 19.5 10.819 19.5C10.819 19.5 10.819 19.5 10.819 19.5C10.819 19.5 10.819 19.5 10.819 19.5C10.819 19.5 10.819 19.5 10.819 19.5C10.819 19.5 10.819 19.5 10.819 19.5C10.819 19.5 10.819 19.5 10.819 19.5C10.819 19.5 10.819 19.5 10.819 19.5C10.819 19.5 10.819 19.5 10.819 19.5C10.819 19.5 10.819 19.5 10.819 19.5C10.819 19.5 10.819 19.5 10.819 19.5C10.819 19.5 10.819 19.5 10.819 19.5C10.819 19.5 10.819 19.5 10.819 19.5C10.819 19.5 10.819 19.5 10.819 19.5C10.819 19.5 10.819 19.5 10.819 19.5C10.819 19.5 10.819 19.5 10.819 19.5C10.819 19.5 10.819 19.5 10.819 19.5C10.819 19.5 10.819 19.5 10.819 19.5C10.819 19.5 10.819 19.5 10.819 19.5C10.819 19.5 10.819 19.5 10.819 19.5C10.819 19.5 10.819 19.5 10.8191 19.5C10.8191 19.5 10.8191 19.5 10.8191 19.5C10.8191 19.5 10.8191 19.5 10.8191 19.5C10.8191 19.5 10.8191 19.5 10.8191 19.5C10.8191 19.5 10.8191 19.5 10.8191 19.5C10.8191 19.5 10.8191 19.5 10.8191 19.5C10.8191 19.5 10.8191 19.5 10.8191 19.5C10.8191 19.5 10.8191 19.5 10.8191 19.5C10.8191 19.5 10.8191 19.5 10.8191 19.5C10.8191 19.5 10.8191 19.5 10.8191 19.5C10.8191 19.5 10.8191 19.5 10.8191 19.5C10.8191 19.5 10.8191 19.5 10.8191 19.5C10.8191 19.5 10.8191 19.5 10.8191 19.5C10.8191 19.5 10.8191 19.5 10.8191 19.5C10.8191 19.5 10.8191 19.5 10.8191 19.5C10.8191 19.5 10.8191 19.5 10.8191 19.5C10.8191 19.5 10.8191 19.5 10.8191 19.5C10.8191 19.5 10.8191 19.5 10.8191 19.5C10.8191 19.5 10.8191 19.5 10.8191 19.5C10.8191 19.5 10.8191 19.5 10.8191 19.5C10.8191 19.5 10.8191 19.5 10.8191 19.5C10.8191 19.5 10.8191 19.5 10.8191 19.5C10.8191 19.5 10.8191 19.5 10.8191 19.5C10.8191 19.5 10.8191 19.5 10.8191 19.5C10.8191 19.5 10.8191 19.5 10.8191 19.5C10.8191 19.5 10.8191 19.5 10.8191 19.5C10.8191 19.5 10.8191 19.5 10.8191 19.5C10.8191 19.5 10.8191 19.5 10.8191 19.5C10.8191 19.5 10.8191 19.5 10.8191 19.5C10.8191 19.5 10.8191 19.5 10.8191 19.5C10.8191 19.5 10.8191 19.5 10.8191 19.5C10.8191 19.5 10.8191 19.5 10.8191 19.5C10.8191 19.5 10.8191 19.5 10.8191 19.5C10.8191 19.5 10.8191 19.5 10.8191 19.5C10.8191 19.5 10.8191 19.5 10.8191 19.5C10.8191 19.5 10.8191 19.5 10.8191 19.5C10.8191 19.5 10.8191 19.5 10.8191 19.5C10.8191 19.5 10.8192 19.5 10.8192 19.5C10.8192 19.5 10.8192 19.5 10.8192 19.5C10.8192 19.5 10.8192 19.5 10.8192 19.5C10.8192 19.5 10.8192 19.5 10.8192 19.5C10.8192 19.5 10.8192 19.5 10.8192 19.5C10.8192 19.5 10.8192 19.5 10.8192 19.5C10.8192 19.5 10.8192 19.5 10.8192 19.5C10.8192 19.5 10.8192 19.5 10.8192 19.5C10.8192 19.5 10.8192 19.5 10.8192 19.5C10.8192 19.5 10.8192 19.5 10.8192 19.5C10.8192 19.5 10.8192 19.5 10.8192 19.5C10.8192 19.5 10.8192 19.5 10.8192 19.5C10.8192 19.5 10.8192 19.5 10.8192 19.5C10.8192 19.5 10.8192 19.5 10.8192 19.5C10.8192 19.5 10.8192 19.5 10.8192 19.5C10.8192 19.5 10.8192 19.5 10.8192 19.5C10.8192 19.5 10.8192 19.5 10.8192 19.5C10.8192 19.5 10.8192 19.5 10.8192 19.5C10.8192 19.5 10.8192 19.5 10.8192 19.5C10.8192 19.5 10.8192 19.5 10.8192 19.5C10.8192 19.5 10.8192 19.5 10.8192 19.5C10.8192 19.5 10.8192 19.5 10.8192 19.5C10.8192 19.5 10.8192 19.5 10.8192 19.5C10.8192 19.5 10.8192 19.5 10.8192 19.5C10.8192 19.5 10.8192 19.5 10.8192 19.5C10.8192 19.5 10.8192 19.5 10.8192 19.5C10.8192 19.5 10.8192 19.5 10.8192 19.5C10.8192 19.5 10.8192 19.5 10.8192 19.5C10.8192 19.5 10.8192 19.5 10.8192 19.5C10.8192 19.5 10.8192 19.5 10.8192 19.5C10.8192 19.5 10.8192 19.5 10.8192 19.5C10.8192 19.5 10.8192 19.5 10.8192 19.5C10.8192 19.5 10.8192 19.5 10.8192 19.5C10.8192 19.5 10.8192 19.5 10.8192 19.5C10.8192 19.5 10.8192 19.5 10.8192 19.5C10.8192 19.5 10.8192 19.5 10.8192 19.5C10.8192 19.5 10.8192 19.5 10.8193 19.5C10.8193 19.5 10.8193 19.5 10.8193 19.5C10.8193 19.5 10.8193 19.5 10.8193 19.5C10.8193 19.5 10.8193 19.5 10.8193 19.5C10.8193 19.5 10.8193 19.5 10.8193 19.5C10.8193 19.5 10.8193 19.5 10.8193 19.5C10.8193 19.5 10.8193 19.5 10.8193 19.5C10.8193 19.5 10.8193 19.5 10.8193 19.5C10.8193 19.5 10.8193 19.5 10.8193 19.5C10.8193 19.5 10.8193 19.5 10.8193 19.5C10.8193 19.5 10.8193 19.5 10.8193 19.5C10.8193 19.5 10.8193 19.5 10.8193 19.5C10.8193 19.5 10.8193 19.5 10.8193 19.5C10.8193 19.5 10.8193 19.5 10.8193 19.5C10.8193 19.5 10.8193 19.5 10.8193 19.5C10.8193 19.5 10.8193 19.5 10.8193 19.5C10.8193 19.5 10.8193 19.5 10.8193 19.5C10.8193 19.5 10.8193 19.5 10.8193 19.5C10.8193 19.5 10.8193 19.5 10.8193 19.5C10.8193 19.5 10.8193 19.5 10.8193 19.5C10.8193 19.5 10.8193 19.5 10.8193 19.5C10.8193 19.5 10.8193 19.5 10.8193 19.5C10.8193 19.5 10.8193 19.5 10.8193 19.5C10.8193 19.5 10.8193 19.5 10.8193 19.5C10.8193 19.5 10.8193 19.5 10.8193 19.5C10.8193 19.5 10.8193 19.5 10.8193 19.5C10.8193 19.5 10.8193 19.5 10.8193 19.5C10.8193 19.5 10.8193 19.5 10.8193 19.5C10.8193 19.5 10.8193 19.5 10.8193 19.5C10.8193 19.5 10.8193 19.5 10.8193 19.5C10.8193 19.5 10.8193 19.5 10.8193 19.5C10.8193 19.5 10.8193 19.5 10.8193 19.5C10.8193 19.5 10.8193 19.5 10.8193 19.5C10.8193 19.5 10.8193 19.5 10.8193 19.5C10.8193 19.5 10.8193 19.5 10.8193 19.5C10.8193 19.5 10.8193 19.5 10.8193 19.5C10.8193 19.5 10.8193 19.5 10.8193 19.5C10.8193 19.5 10.8194 19.5 10.8194 19.5C10.8194 19.5 10.8194 19.5 10.8194 19.5C10.8194 19.5 10.8194 19.5 10.8194 19.5C10.8194 19.5 10.8194 19.5 10.8194 19.5C10.8194 19.5 10.8194 19.5 10.8194 19.5C10.8194 19.5 10.8194 19.5 10.8194 19.5C10.8194 19.5 10.8194 19.5 10.8194 19.5C10.8194 19.5 10.8194 19.5 10.8194 19.5C10.8194 19.5 10.8194 19.5 10.8194 19.5C10.8194 19.5 10.8194 19.5 10.8194 19.5C10.8194 19.5 10.8194 19.5 10.8194 19.5C10.8194 19.5 10.8194 19.5 10.8194 19.5C10.8194 19.5 10.8194 19.5 10.8194 19.5C10.8194 19.5 10.8194 19.5 10.8194 19.5C10.8194 19.5 10.8194 19.5 10.8194 19.5C10.8194 19.5 10.8194 19.5 10.8194 19.5C10.8194 19.5 10.8194 19.5 10.8194 19.5C10.8194 19.5 10.8194 19.5 10.8194 19.5C10.8194 19.5 10.8194 19.5 10.8194 19.5C10.8194 19.5 10.8194 19.5 10.8194 19.5C10.8194 19.5 10.8194 19.5 10.8194 19.5C10.8194 19.5 10.8194 19.5 10.8194 19.5C10.8194 19.5 10.8194 19.5 10.8194 19.5C10.8194 19.5 10.8194 19.5 10.8194 19.5C10.8194 19.5 10.8194 19.5 10.8194 19.5C10.8194 19.5 10.8194 19.5 10.8194 19.5C10.8194 19.5 10.8194 19.5 10.8194 19.5C10.8194 19.5 10.8194 19.5 10.8194 19.5C10.8194 19.5 10.8194 19.5 10.8194 19.5C10.8194 19.5 10.8194 19.5 10.8194 19.5C10.8194 19.5 10.8194 19.5 10.8194 19.5C10.8194 19.5 10.8194 19.5 10.8194 19.5C10.8194 19.5 10.8194 19.5 10.8194 19.5C10.8194 19.5 10.8194 19.5 10.8194 19.5C10.8194 19.5 10.8194 19.5 10.8194 19.5C10.8194 19.5 10.8194 19.5 10.8194 19.5C10.8194 19.5 10.8194 19.5 10.8194 19.5C10.8195 19.5 10.8195 19.5 10.8195 19.5C10.8195 19.5 10.8195 19.5 10.8195 19.5C10.8195 19.5 10.8195 19.5 10.8195 19.5C10.8195 19.5 10.8195 19.5 10.8195 19.5C10.8195 19.5 10.8195 19.5 10.8195 19.5C10.8195 19.5 10.8195 19.5 10.8195 19.5C10.8195 19.5 10.8195 19.5 10.8195 19.5C10.8195 19.5 10.8195 19.5 10.8195 19.5C10.8195 19.5 10.8195 19.5 10.8195 19.5C10.8195 19.5 10.8195 19.5 10.8195 19.5C10.8195 19.5 10.8195 19.5 10.8195 19.5C10.8195 19.5 10.8195 19.5 10.8195 19.5C10.8195 19.5 10.8195 19.5 10.8195 19.5C10.8195 19.5 10.8195 19.5 10.8195 19.5C10.8195 19.5 10.8195 19.5 10.8195 19.5C10.8195 19.5 10.8195 19.5 10.8195 19.5C10.8195 19.5 10.8195 19.5 10.8195 19.5C10.8195 19.5 10.8195 19.5 10.8195 19.5C10.8195 19.5 10.8195 19.5 10.8195 19.5C10.8195 19.5 10.8195 19.5 10.8195 19.5C10.8195 19.5 10.8195 19.5 10.8195 19.5C10.8195 19.5 10.8195 19.5 10.8195 19.5C10.8195 19.5 10.8195 19.5 10.8195 19.5C10.8195 19.5 10.8195 19.5 10.8195 19.5C10.8195 19.5 10.8195 19.5 10.8195 19.5C10.8195 19.5 10.8195 19.5 10.8195 19.5C10.8195 19.5 10.8195 19.5 10.8195 19.5C10.8195 19.5 10.8195 19.5 10.8195 19.5C10.8195 19.5 10.8195 19.5 10.8195 19.5C10.8195 19.5 10.8195 19.5 10.8195 19.5C10.8195 19.5 10.8195 19.5 10.8195 19.5C10.8195 19.5 10.8195 19.5 10.8195 19.5C10.8195 19.5 10.8195 19.5 10.8195 19.5C10.8195 19.5 10.8195 19.5 10.8195 19.5C10.8195 19.5 10.8195 19.5 10.8195 19.5C10.8195 19.5 10.8195 19.5 10.8195 19.5C10.8195 19.5 10.8195 19.5 10.8196 19.5C10.8196 19.5 10.8196 19.5 10.8196 19.5C10.8196 19.5 10.8196 19.5 10.8196 19.5C10.8196 19.5 10.8196 19.5 10.8196 19.5C10.8196 19.5 10.8196 19.5 10.8196 19.5C10.8196 19.5 10.8196 19.5 10.8196 19.5C10.8196 19.5 10.8196 19.5 10.8196 19.5C10.8196 19.5 10.8196 19.5 10.8196 19.5C10.8196 19.5 10.8196 19.5 10.8196 19.5C10.8196 19.5 10.8196 19.5 10.8196 19.5C10.8196 19.5 10.8196 19.5 10.8196 19.5C10.8196 19.5 10.8196 19.5 10.8196 19.5C10.8196 19.5 10.8196 19.5 10.8196 19.5C10.8196 19.5 10.8196 19.5 10.8196 19.5C10.8196 19.5 10.8196 19.5 10.8196 19.5C10.8196 19.5 10.8196 19.5 10.8196 19.5C10.8196 19.5 10.8196 19.5 10.8196 19.5C10.8196 19.5 10.8196 19.5 10.8196 19.5C10.8196 19.5 10.8196 19.5 10.8196 19.5C10.8196 19.5 10.8196 19.5 10.8196 19.5C10.8196 19.5 10.8196 19.5 10.8196 19.5C10.8196 19.5 10.8196 19.5 10.8196 19.5C10.8196 19.5 10.8196 19.5 10.8196 19.5C10.8196 19.5 10.8196 19.5 10.8196 19.5C10.8196 19.5 10.8196 19.5 10.8196 19.5C10.8196 19.5 10.8196 19.5 10.8196 19.5C10.8196 19.5 10.8196 19.5 10.8196 19.5C10.8196 19.5 10.8196 19.5 10.8196 19.5C10.8196 19.5 10.8196 19.5 10.8196 19.5C10.8196 19.5 10.8196 19.5 10.8196 19.5C10.8196 19.5 10.8196 19.5 10.8196 19.5C10.8196 19.5 10.8196 19.5 10.8196 19.5C10.8196 19.5 10.8196 19.5 10.8196 19.5C10.8196 19.5 10.8196 19.5 10.8196 19.5C10.8196 19.5 10.8196 19.5 10.8196 19.5C10.8196 19.5 10.8196 19.5 10.8196 19.5C10.8196 19.5 10.8196 19.5 10.8196 19.5C10.8196 19.5 10.8197 19.5 10.8197 19.5C10.8197 19.5 10.8197 19.5 10.8197 19.5C10.8197 19.5 10.8197 19.5 10.8197 19.5C10.8197 19.5 10.8197 19.5 10.8197 19.5C10.8197 19.5 10.8197 19.5 10.8197 19.5C10.8197 19.5 10.8197 19.5 10.8197 19.5C10.8197 19.5 10.8197 19.5 10.8197 19.5C10.8197 19.5 10.8197 19.5 10.8197 19.5C10.8197 19.5 10.8197 19.5 10.8197 19.5C10.8197 19.5 10.8197 19.5 10.8197 19.5C10.8197 19.5 10.8197 19.5 10.8197 19.5C10.8197 19.5 10.8197 19.5 10.8197 19.5C10.8197 19.5 10.8197 19.5 10.8197 19.5C10.8197 19.5 10.8197 19.5 10.8197 19.5C10.8197 19.5 10.8197 19.5 10.8197 19.5C10.8197 19.5 10.8197 19.5 10.8197 19.5C10.8197 19.5 10.8197 19.5 10.8197 19.5C10.8197 19.5 10.8197 19.5 10.8197 19.5C10.8197 19.5 10.8197 19.5 10.8197 19.5C10.8197 19.5 10.8197 19.5 10.8197 19.5C10.8197 19.5 10.8197 19.5 10.8197 19.5C10.8197 19.5 10.8197 19.5 10.8197 19.5C10.8197 19.5 10.8197 19.5 10.8197 19.5C10.8197 19.5 10.8197 19.5 10.8197 19.5C10.8197 19.5 10.8197 19.5 10.8197 19.5C10.8197 19.5 10.8197 19.5 10.8197 19.5C10.8197 19.5 10.8197 19.5 10.8197 19.5C10.8197 19.5 10.8197 19.5 10.8197 19.5C10.8197 19.5 10.8197 19.5 10.8197 19.5C10.8197 19.5 10.8197 19.5 10.8197 19.5C10.8197 19.5 10.8197 19.5 10.8197 19.5C10.8197 19.5 10.8197 19.5 10.8197 19.5C10.8197 19.5 10.8197 19.5 10.8197 19.5C10.8197 19.5 10.8197 19.5 10.8197 19.5C10.8197 19.5 10.8197 19.5 10.8197 19.5C10.8197 19.5 10.8197 19.5 10.8197 19.5C10.8197 19.5 10.8197 19.5 10.8197 19.5C10.8198 19.5 10.8198 19.5 10.8198 19.5C10.8198 19.5 10.8198 19.5 10.8198 19.5C10.8198 19.5 10.8198 19.5 10.8198 19.5C10.8198 19.5 10.8198 19.5 10.8198 19.5C10.8198 19.5 10.8198 19.5 10.8198 19.5C10.8198 19.5 10.8198 19.5 10.8198 19.5C10.8198 19.5 10.8198 19.5 10.8198 19.5C10.8198 19.5 10.8198 19.5 10.8198 19.5C10.8198 19.5 10.8198 19.5 10.8198 19.5C10.8198 19.5 10.8198 19.5 10.8198 19.5C10.8198 19.5 10.8198 19.5 10.8198 19.5C10.8198 19.5 10.8198 19.5 10.8198 19.5C10.8198 19.5 10.8198 19.5 10.8198 19.5C10.8198 19.5 10.8198 19.5 10.8198 19.5C10.8198 19.5 10.8198 19.5 10.8198 19.5C10.8198 19.5 10.8198 19.5 10.8198 19.5C10.8198 19.5 10.8198 19.5 10.8198 19.5C10.8198 19.5 10.8198 19.5 10.8198 19.5C10.8198 19.5 10.8198 19.5 10.8198 19.5C10.8198 19.5 10.8198 19.5 10.8198 19.5C10.8198 19.5 10.8198 19.5 10.8198 19.5C10.8198 19.5 10.8198 19.5 10.8198 19.5C10.8198 19.5 10.8198 19.5 10.8198 19.5C10.8198 19.5 10.8198 19.5 10.8198 19.5C10.8198 19.5 10.8198 19.5 10.8198 19.5C10.8198 19.5 10.8198 19.5 10.8198 19.5C10.8198 19.5 10.8198 19.5 10.8198 19.5C10.8198 19.5 10.8198 19.5 10.8198 19.5C10.8198 19.5 10.8198 19.5 10.8198 19.5C10.8198 19.5 10.8198 19.5 10.8198 19.5C10.8198 19.5 10.8198 19.5 10.8198 19.5C10.8198 19.5 10.8198 19.5 10.8198 19.5C10.8198 19.5 10.8198 19.5 10.8198 19.5C10.8198 19.5 10.8198 19.5 10.8198 19.5C10.8198 19.5 10.8198 19.5 10.8198 19.5C10.8198 19.5 10.8198 19.5 10.8198 19.5C10.8198 19.5 10.8198 19.5 10.8199 19.5C10.8199 19.5 10.8199 19.5 10.8199 19.5C10.8199 19.5 10.8199 19.5 10.8199 19.5C10.8199 19.5 10.8199 19.5 10.8199 19.5C10.8199 19.5 10.8199 19.5 10.8199 19.5C10.8199 19.5 10.8199 19.5 10.8199 19.5C10.8199 19.5 10.8199 19.5 10.8199 19.5C10.8199 19.5 10.8199 19.5 10.8199 19.5C10.8199 19.5 10.8199 19.5 10.8199 19.5C10.8199 19.5 10.8199 19.5 10.8199 19.5C10.8199 19.5 10.8199 19.5 10.8199 19.5C10.8199 19.5 10.8199 19.5 10.8199 19.5C10.8199 19.5 10.8199 19.5 10.8199 19.5C10.8199 19.5 10.8199 19.5 10.8199 19.5C10.8199 19.5 10.8199 19.5 10.8199 19.5C10.8199 19.5 10.8199 19.5 10.8199 19.5C10.8199 19.5 10.8199 19.5 10.8199 19.5C10.8199 19.5 10.8199 19.5 10.8199 19.5C10.8199 19.5 10.8199 19.5 10.8199 19.5C10.8199 19.5 10.8199 19.5 10.8199 19.5C10.8199 19.5 10.8199 19.5 10.8199 19.5C10.8199 19.5 10.8199 19.5 10.8199 19.5C10.8199 19.5 10.8199 19.5 10.8199 19.5C10.8199 19.5 10.8199 19.5 10.8199 19.5C10.8199 19.5 10.8199 19.5 10.8199 19.5C10.8199 19.5 10.8199 19.5 10.8199 19.5C10.8199 19.5 10.8199 19.5 10.8199 19.5C10.8199 19.5 10.8199 19.5 10.8199 19.5C10.8199 19.5 10.8199 19.5 10.8199 19.5C10.8199 19.5 10.8199 19.5 10.8199 19.5C10.8199 19.5 10.8199 19.5 10.8199 19.5C10.8199 19.5 10.8199 19.5 10.8199 19.5C10.8199 19.5 10.8199 19.5 10.8199 19.5C10.8199 19.5 10.8199 19.5 10.8199 19.5C10.8199 19.5 10.8199 19.5 10.8199 19.5C10.8199 19.5 10.8199 19.5 10.8199 19.5C10.8199 19.5 10.8199 19.5 10.8199 19.5C10.82 19.5 10.82 19.5 10.82 19.5C10.82 19.5 10.82 19.5 10.82 19.5C10.82 19.5 10.82 19.5 10.82 19.5C10.82 19.5 10.82 19.5 10.82 19.5C10.82 19.5 10.82 19.5 10.82 19.5C10.82 19.5 10.82 19.5 10.82 19.5C10.82 19.5 10.82 19.5 10.82 19.5C10.82 19.5 10.82 19.5 10.82 19.5C10.82 19.5 10.82 19.5 10.82 19.5C10.82 19.5 10.82 19.5 10.82 19.5C10.82 19.5 10.82 19.5 10.82 19.5C10.82 19.5 10.82 19.5 10.82 19.5C10.82 19.5 10.82 19.5 10.82 19.5C10.82 19.5 10.82 19.5 10.82 19.5C10.82 19.5 10.82 19.5 10.82 19.5C10.82 19.5 10.82 19.5 10.82 19.5C10.82 19.5 10.82 19.5 10.82 19.5C10.82 19.5 10.82 19.5 10.82 19.5C10.82 19.5 10.82 19.5 10.82 19.5C10.82 19.5 10.82 19.5 10.82 19.5C10.82 19.5 10.82 19.5 10.82 19.5C10.82 19.5 10.82 19.5 10.82 19.5C10.82 19.5 10.82 19.5 10.82 19.5C10.82 19.5 10.82 19.5 10.82 19.5C10.82 19.5 10.82 19.5 10.82 19.5C10.82 19.5 10.82 19.5 10.82 19.5C10.82 19.5 10.82 19.5 10.82 19.5C10.82 19.5 10.82 19.5 10.82 19.5C10.82 19.5 10.82 19.5 10.82 19.5C10.82 19.5 10.82 19.5 10.82 19.5C10.82 19.5 10.82 19.5 10.82 19.5C10.82 19.5 10.82 19.5 10.82 19.5C10.82 19.5 10.82 19.5 10.82 19.5C10.82 19.5 10.82 19.5 10.82 19.5C10.82 19.5 10.82 19.5 10.82 19.5C10.82 19.5 10.82 19.5 10.82 19.5C10.82 19.5 10.82 19.5 10.8201 19.5C10.8201 19.5 10.8201 19.5 10.8201 19.5C10.8201 19.5 10.8201 19.5 10.8201 19.5C10.8201 19.5 10.8201 19.5 10.8201 19.5C10.8201 19.5 10.8201 19.5 10.8201 19.5C10.8201 19.5 10.8201 19.5 10.8201 19.5C10.8201 19.5 10.8201 19.5 10.8201 19.5C10.8201 19.5 10.8201 19.5 10.8201 19.5C10.8201 19.5 10.8201 19.5 10.8201 19.5C10.8201 19.5 10.8201 19.5 10.8201 19.5C10.8201 19.5 10.8201 19.5 10.8201 19.5C10.8201 19.5 10.8201 19.5 10.8201 19.5C10.8201 19.5 10.8201 19.5 10.8201 19.5C10.8201 19.5 10.8201 19.5 10.8201 19.5C10.8201 19.5 10.8201 19.5 10.8201 19.5C10.8201 19.5 10.8201 19.5 10.8201 19.5C10.8201 19.5 10.8201 19.5 10.8201 19.5C10.8201 19.5 10.8201 19.5 10.8201 19.5C10.8201 19.5 10.8201 19.5 10.8201 19.5C10.8201 19.5 10.8201 19.5 10.8201 19.5C10.8201 19.5 10.8201 19.5 10.8201 19.5C10.8201 19.5 10.8201 19.5 10.8201 19.5C10.8201 19.5 10.8201 19.5 10.8201 19.5C10.8201 19.5 10.8201 19.5 10.8201 19.5C10.8201 19.5 10.8201 19.5 10.8201 19.5C10.8201 19.5 10.8201 19.5 10.8201 19.5C10.8201 19.5 10.8201 19.5 10.8201 19.5C10.8201 19.5 10.8201 19.5 10.8201 19.5C10.8201 19.5 10.8201 19.5 10.8201 19.5C10.8201 19.5 10.8201 19.5 10.8201 19.5C10.8201 19.5 10.8201 19.5 10.8201 19.5C10.8201 19.5 10.8201 19.5 10.8201 19.5C10.8201 19.5 10.8201 19.5 10.8201 19.5C10.8201 19.5 10.8201 19.5 10.8201 19.5C10.8201 19.5 10.8201 19.5 10.8201 19.5C10.8201 19.5 10.8201 19.5 10.8201 19.5C10.8201 19.5 10.8201 19.5 10.8201 19.5C10.8201 19.5 10.8202 19.5 10.8202 19.5C10.8202 19.5 10.8202 19.5 10.8202 19.5C10.8202 19.5 10.8202 19.5 10.8202 19.5C10.8202 19.5 10.8202 19.5 10.8202 19.5C10.8202 19.5 10.8202 19.5 10.8202 19.5C10.8202 19.5 10.8202 19.5 10.8202 19.5C10.8202 19.5 10.8202 19.5 10.8202 19.5C10.8202 19.5 10.8202 19.5 10.8202 19.5C10.8202 19.5 10.8202 19.5 10.8202 19.5C10.8202 19.5 10.8202 19.5 10.8202 19.5C10.8202 19.5 10.8202 19.5 10.8202 19.5C10.8202 19.5 10.8202 19.5 10.8202 19.5C10.8202 19.5 10.8202 19.5 10.8202 19.5C10.8202 19.5 10.8202 19.5 10.8202 19.5C10.8202 19.5 10.8202 19.5 10.8202 19.5C10.8202 19.5 10.8202 19.5 10.8202 19.5C10.8202 19.5 10.8202 19.5 10.8202 19.5C10.8202 19.5 10.8202 19.5 10.8202 19.5C10.8202 19.5 10.8202 19.5 10.8202 19.5C10.8202 19.5 10.8202 19.5 10.8202 19.5C10.8202 19.5 10.8202 19.5 10.8202 19.5V18.5C10.8202 18.5 10.8202 18.5 10.8202 18.5C10.8202 18.5 10.8202 18.5 10.8202 18.5C10.8202 18.5 10.8202 18.5 10.8202 18.5C10.8202 18.5 10.8202 18.5 10.8202 18.5C10.8202 18.5 10.8202 18.5 10.8202 18.5C10.8202 18.5 10.8202 18.5 10.8202 18.5C10.8202 18.5 10.8202 18.5 10.8202 18.5C10.8202 18.5 10.8202 18.5 10.8202 18.5C10.8202 18.5 10.8202 18.5 10.8202 18.5C10.8202 18.5 10.8202 18.5 10.8202 18.5C10.8202 18.5 10.8202 18.5 10.8202 18.5C10.8202 18.5 10.8202 18.5 10.8202 18.5C10.8202 18.5 10.8202 18.5 10.8202 18.5C10.8202 18.5 10.8202 18.5 10.8202 18.5C10.8202 18.5 10.8202 18.5 10.8202 18.5C10.8202 18.5 10.8202 18.5 10.8202 18.5C10.8202 18.5 10.8202 18.5 10.8202 18.5C10.8202 18.5 10.8202 18.5 10.8202 18.5C10.8202 18.5 10.8202 18.5 10.8202 18.5C10.8202 18.5 10.8202 18.5 10.8202 18.5C10.8202 18.5 10.8201 18.5 10.8201 18.5C10.8201 18.5 10.8201 18.5 10.8201 18.5C10.8201 18.5 10.8201 18.5 10.8201 18.5C10.8201 18.5 10.8201 18.5 10.8201 18.5C10.8201 18.5 10.8201 18.5 10.8201 18.5C10.8201 18.5 10.8201 18.5 10.8201 18.5C10.8201 18.5 10.8201 18.5 10.8201 18.5C10.8201 18.5 10.8201 18.5 10.8201 18.5C10.8201 18.5 10.8201 18.5 10.8201 18.5C10.8201 18.5 10.8201 18.5 10.8201 18.5C10.8201 18.5 10.8201 18.5 10.8201 18.5C10.8201 18.5 10.8201 18.5 10.8201 18.5C10.8201 18.5 10.8201 18.5 10.8201 18.5C10.8201 18.5 10.8201 18.5 10.8201 18.5C10.8201 18.5 10.8201 18.5 10.8201 18.5C10.8201 18.5 10.8201 18.5 10.8201 18.5C10.8201 18.5 10.8201 18.5 10.8201 18.5C10.8201 18.5 10.8201 18.5 10.8201 18.5C10.8201 18.5 10.8201 18.5 10.8201 18.5C10.8201 18.5 10.8201 18.5 10.8201 18.5C10.8201 18.5 10.8201 18.5 10.8201 18.5C10.8201 18.5 10.8201 18.5 10.8201 18.5C10.8201 18.5 10.8201 18.5 10.8201 18.5C10.8201 18.5 10.8201 18.5 10.8201 18.5C10.8201 18.5 10.8201 18.5 10.8201 18.5C10.8201 18.5 10.8201 18.5 10.8201 18.5C10.8201 18.5 10.8201 18.5 10.8201 18.5C10.8201 18.5 10.8201 18.5 10.8201 18.5C10.8201 18.5 10.8201 18.5 10.8201 18.5C10.8201 18.5 10.8201 18.5 10.8201 18.5C10.8201 18.5 10.8201 18.5 10.8201 18.5C10.8201 18.5 10.8201 18.5 10.8201 18.5C10.8201 18.5 10.8201 18.5 10.8201 18.5C10.8201 18.5 10.8201 18.5 10.8201 18.5C10.8201 18.5 10.8201 18.5 10.8201 18.5C10.8201 18.5 10.8201 18.5 10.8201 18.5C10.8201 18.5 10.8201 18.5 10.8201 18.5C10.82 18.5 10.82 18.5 10.82 18.5C10.82 18.5 10.82 18.5 10.82 18.5C10.82 18.5 10.82 18.5 10.82 18.5C10.82 18.5 10.82 18.5 10.82 18.5C10.82 18.5 10.82 18.5 10.82 18.5C10.82 18.5 10.82 18.5 10.82 18.5C10.82 18.5 10.82 18.5 10.82 18.5C10.82 18.5 10.82 18.5 10.82 18.5C10.82 18.5 10.82 18.5 10.82 18.5C10.82 18.5 10.82 18.5 10.82 18.5C10.82 18.5 10.82 18.5 10.82 18.5C10.82 18.5 10.82 18.5 10.82 18.5C10.82 18.5 10.82 18.5 10.82 18.5C10.82 18.5 10.82 18.5 10.82 18.5C10.82 18.5 10.82 18.5 10.82 18.5C10.82 18.5 10.82 18.5 10.82 18.5C10.82 18.5 10.82 18.5 10.82 18.5C10.82 18.5 10.82 18.5 10.82 18.5C10.82 18.5 10.82 18.5 10.82 18.5C10.82 18.5 10.82 18.5 10.82 18.5C10.82 18.5 10.82 18.5 10.82 18.5C10.82 18.5 10.82 18.5 10.82 18.5C10.82 18.5 10.82 18.5 10.82 18.5C10.82 18.5 10.82 18.5 10.82 18.5C10.82 18.5 10.82 18.5 10.82 18.5C10.82 18.5 10.82 18.5 10.82 18.5C10.82 18.5 10.82 18.5 10.82 18.5C10.82 18.5 10.82 18.5 10.82 18.5C10.82 18.5 10.82 18.5 10.82 18.5C10.82 18.5 10.82 18.5 10.82 18.5C10.82 18.5 10.82 18.5 10.82 18.5C10.82 18.5 10.82 18.5 10.82 18.5C10.82 18.5 10.82 18.5 10.82 18.5C10.82 18.5 10.82 18.5 10.82 18.5C10.82 18.5 10.82 18.5 10.82 18.5C10.82 18.5 10.82 18.5 10.82 18.5C10.82 18.5 10.82 18.5 10.8199 18.5C10.8199 18.5 10.8199 18.5 10.8199 18.5C10.8199 18.5 10.8199 18.5 10.8199 18.5C10.8199 18.5 10.8199 18.5 10.8199 18.5C10.8199 18.5 10.8199 18.5 10.8199 18.5C10.8199 18.5 10.8199 18.5 10.8199 18.5C10.8199 18.5 10.8199 18.5 10.8199 18.5C10.8199 18.5 10.8199 18.5 10.8199 18.5C10.8199 18.5 10.8199 18.5 10.8199 18.5C10.8199 18.5 10.8199 18.5 10.8199 18.5C10.8199 18.5 10.8199 18.5 10.8199 18.5C10.8199 18.5 10.8199 18.5 10.8199 18.5C10.8199 18.5 10.8199 18.5 10.8199 18.5C10.8199 18.5 10.8199 18.5 10.8199 18.5C10.8199 18.5 10.8199 18.5 10.8199 18.5C10.8199 18.5 10.8199 18.5 10.8199 18.5C10.8199 18.5 10.8199 18.5 10.8199 18.5C10.8199 18.5 10.8199 18.5 10.8199 18.5C10.8199 18.5 10.8199 18.5 10.8199 18.5C10.8199 18.5 10.8199 18.5 10.8199 18.5C10.8199 18.5 10.8199 18.5 10.8199 18.5C10.8199 18.5 10.8199 18.5 10.8199 18.5C10.8199 18.5 10.8199 18.5 10.8199 18.5C10.8199 18.5 10.8199 18.5 10.8199 18.5C10.8199 18.5 10.8199 18.5 10.8199 18.5C10.8199 18.5 10.8199 18.5 10.8199 18.5C10.8199 18.5 10.8199 18.5 10.8199 18.5C10.8199 18.5 10.8199 18.5 10.8199 18.5C10.8199 18.5 10.8199 18.5 10.8199 18.5C10.8199 18.5 10.8199 18.5 10.8199 18.5C10.8199 18.5 10.8199 18.5 10.8199 18.5C10.8199 18.5 10.8199 18.5 10.8199 18.5C10.8199 18.5 10.8199 18.5 10.8199 18.5C10.8199 18.5 10.8199 18.5 10.8199 18.5C10.8199 18.5 10.8199 18.5 10.8199 18.5C10.8199 18.5 10.8199 18.5 10.8199 18.5C10.8199 18.5 10.8199 18.5 10.8199 18.5C10.8198 18.5 10.8198 18.5 10.8198 18.5C10.8198 18.5 10.8198 18.5 10.8198 18.5C10.8198 18.5 10.8198 18.5 10.8198 18.5C10.8198 18.5 10.8198 18.5 10.8198 18.5C10.8198 18.5 10.8198 18.5 10.8198 18.5C10.8198 18.5 10.8198 18.5 10.8198 18.5C10.8198 18.5 10.8198 18.5 10.8198 18.5C10.8198 18.5 10.8198 18.5 10.8198 18.5C10.8198 18.5 10.8198 18.5 10.8198 18.5C10.8198 18.5 10.8198 18.5 10.8198 18.5C10.8198 18.5 10.8198 18.5 10.8198 18.5C10.8198 18.5 10.8198 18.5 10.8198 18.5C10.8198 18.5 10.8198 18.5 10.8198 18.5C10.8198 18.5 10.8198 18.5 10.8198 18.5C10.8198 18.5 10.8198 18.5 10.8198 18.5C10.8198 18.5 10.8198 18.5 10.8198 18.5C10.8198 18.5 10.8198 18.5 10.8198 18.5C10.8198 18.5 10.8198 18.5 10.8198 18.5C10.8198 18.5 10.8198 18.5 10.8198 18.5C10.8198 18.5 10.8198 18.5 10.8198 18.5C10.8198 18.5 10.8198 18.5 10.8198 18.5C10.8198 18.5 10.8198 18.5 10.8198 18.5C10.8198 18.5 10.8198 18.5 10.8198 18.5C10.8198 18.5 10.8198 18.5 10.8198 18.5C10.8198 18.5 10.8198 18.5 10.8198 18.5C10.8198 18.5 10.8198 18.5 10.8198 18.5C10.8198 18.5 10.8198 18.5 10.8198 18.5C10.8198 18.5 10.8198 18.5 10.8198 18.5C10.8198 18.5 10.8198 18.5 10.8198 18.5C10.8198 18.5 10.8198 18.5 10.8198 18.5C10.8198 18.5 10.8198 18.5 10.8198 18.5C10.8198 18.5 10.8198 18.5 10.8198 18.5C10.8198 18.5 10.8198 18.5 10.8198 18.5C10.8198 18.5 10.8198 18.5 10.8198 18.5C10.8198 18.5 10.8198 18.5 10.8198 18.5C10.8198 18.5 10.8198 18.5 10.8198 18.5C10.8198 18.5 10.8198 18.5 10.8197 18.5C10.8197 18.5 10.8197 18.5 10.8197 18.5C10.8197 18.5 10.8197 18.5 10.8197 18.5C10.8197 18.5 10.8197 18.5 10.8197 18.5C10.8197 18.5 10.8197 18.5 10.8197 18.5C10.8197 18.5 10.8197 18.5 10.8197 18.5C10.8197 18.5 10.8197 18.5 10.8197 18.5C10.8197 18.5 10.8197 18.5 10.8197 18.5C10.8197 18.5 10.8197 18.5 10.8197 18.5C10.8197 18.5 10.8197 18.5 10.8197 18.5C10.8197 18.5 10.8197 18.5 10.8197 18.5C10.8197 18.5 10.8197 18.5 10.8197 18.5C10.8197 18.5 10.8197 18.5 10.8197 18.5C10.8197 18.5 10.8197 18.5 10.8197 18.5C10.8197 18.5 10.8197 18.5 10.8197 18.5C10.8197 18.5 10.8197 18.5 10.8197 18.5C10.8197 18.5 10.8197 18.5 10.8197 18.5C10.8197 18.5 10.8197 18.5 10.8197 18.5C10.8197 18.5 10.8197 18.5 10.8197 18.5C10.8197 18.5 10.8197 18.5 10.8197 18.5C10.8197 18.5 10.8197 18.5 10.8197 18.5C10.8197 18.5 10.8197 18.5 10.8197 18.5C10.8197 18.5 10.8197 18.5 10.8197 18.5C10.8197 18.5 10.8197 18.5 10.8197 18.5C10.8197 18.5 10.8197 18.5 10.8197 18.5C10.8197 18.5 10.8197 18.5 10.8197 18.5C10.8197 18.5 10.8197 18.5 10.8197 18.5C10.8197 18.5 10.8197 18.5 10.8197 18.5C10.8197 18.5 10.8197 18.5 10.8197 18.5C10.8197 18.5 10.8197 18.5 10.8197 18.5C10.8197 18.5 10.8197 18.5 10.8197 18.5C10.8197 18.5 10.8197 18.5 10.8197 18.5C10.8197 18.5 10.8197 18.5 10.8197 18.5C10.8197 18.5 10.8197 18.5 10.8197 18.5C10.8197 18.5 10.8197 18.5 10.8197 18.5C10.8197 18.5 10.8197 18.5 10.8197 18.5C10.8197 18.5 10.8197 18.5 10.8197 18.5C10.8197 18.5 10.8196 18.5 10.8196 18.5C10.8196 18.5 10.8196 18.5 10.8196 18.5C10.8196 18.5 10.8196 18.5 10.8196 18.5C10.8196 18.5 10.8196 18.5 10.8196 18.5C10.8196 18.5 10.8196 18.5 10.8196 18.5C10.8196 18.5 10.8196 18.5 10.8196 18.5C10.8196 18.5 10.8196 18.5 10.8196 18.5C10.8196 18.5 10.8196 18.5 10.8196 18.5C10.8196 18.5 10.8196 18.5 10.8196 18.5C10.8196 18.5 10.8196 18.5 10.8196 18.5C10.8196 18.5 10.8196 18.5 10.8196 18.5C10.8196 18.5 10.8196 18.5 10.8196 18.5C10.8196 18.5 10.8196 18.5 10.8196 18.5C10.8196 18.5 10.8196 18.5 10.8196 18.5C10.8196 18.5 10.8196 18.5 10.8196 18.5C10.8196 18.5 10.8196 18.5 10.8196 18.5C10.8196 18.5 10.8196 18.5 10.8196 18.5C10.8196 18.5 10.8196 18.5 10.8196 18.5C10.8196 18.5 10.8196 18.5 10.8196 18.5C10.8196 18.5 10.8196 18.5 10.8196 18.5C10.8196 18.5 10.8196 18.5 10.8196 18.5C10.8196 18.5 10.8196 18.5 10.8196 18.5C10.8196 18.5 10.8196 18.5 10.8196 18.5C10.8196 18.5 10.8196 18.5 10.8196 18.5C10.8196 18.5 10.8196 18.5 10.8196 18.5C10.8196 18.5 10.8196 18.5 10.8196 18.5C10.8196 18.5 10.8196 18.5 10.8196 18.5C10.8196 18.5 10.8196 18.5 10.8196 18.5C10.8196 18.5 10.8196 18.5 10.8196 18.5C10.8196 18.5 10.8196 18.5 10.8196 18.5C10.8196 18.5 10.8196 18.5 10.8196 18.5C10.8196 18.5 10.8196 18.5 10.8196 18.5C10.8196 18.5 10.8196 18.5 10.8196 18.5C10.8196 18.5 10.8196 18.5 10.8196 18.5C10.8196 18.5 10.8196 18.5 10.8196 18.5C10.8196 18.5 10.8196 18.5 10.8196 18.5C10.8196 18.5 10.8196 18.5 10.8196 18.5C10.8195 18.5 10.8195 18.5 10.8195 18.5C10.8195 18.5 10.8195 18.5 10.8195 18.5C10.8195 18.5 10.8195 18.5 10.8195 18.5C10.8195 18.5 10.8195 18.5 10.8195 18.5C10.8195 18.5 10.8195 18.5 10.8195 18.5C10.8195 18.5 10.8195 18.5 10.8195 18.5C10.8195 18.5 10.8195 18.5 10.8195 18.5C10.8195 18.5 10.8195 18.5 10.8195 18.5C10.8195 18.5 10.8195 18.5 10.8195 18.5C10.8195 18.5 10.8195 18.5 10.8195 18.5C10.8195 18.5 10.8195 18.5 10.8195 18.5C10.8195 18.5 10.8195 18.5 10.8195 18.5C10.8195 18.5 10.8195 18.5 10.8195 18.5C10.8195 18.5 10.8195 18.5 10.8195 18.5C10.8195 18.5 10.8195 18.5 10.8195 18.5C10.8195 18.5 10.8195 18.5 10.8195 18.5C10.8195 18.5 10.8195 18.5 10.8195 18.5C10.8195 18.5 10.8195 18.5 10.8195 18.5C10.8195 18.5 10.8195 18.5 10.8195 18.5C10.8195 18.5 10.8195 18.5 10.8195 18.5C10.8195 18.5 10.8195 18.5 10.8195 18.5C10.8195 18.5 10.8195 18.5 10.8195 18.5C10.8195 18.5 10.8195 18.5 10.8195 18.5C10.8195 18.5 10.8195 18.5 10.8195 18.5C10.8195 18.5 10.8195 18.5 10.8195 18.5C10.8195 18.5 10.8195 18.5 10.8195 18.5C10.8195 18.5 10.8195 18.5 10.8195 18.5C10.8195 18.5 10.8195 18.5 10.8195 18.5C10.8195 18.5 10.8195 18.5 10.8195 18.5C10.8195 18.5 10.8195 18.5 10.8195 18.5C10.8195 18.5 10.8195 18.5 10.8195 18.5C10.8195 18.5 10.8195 18.5 10.8195 18.5C10.8195 18.5 10.8195 18.5 10.8195 18.5C10.8195 18.5 10.8195 18.5 10.8195 18.5C10.8195 18.5 10.8195 18.5 10.8195 18.5C10.8195 18.5 10.8195 18.5 10.8195 18.5C10.8195 18.5 10.8195 18.5 10.8194 18.5C10.8194 18.5 10.8194 18.5 10.8194 18.5C10.8194 18.5 10.8194 18.5 10.8194 18.5C10.8194 18.5 10.8194 18.5 10.8194 18.5C10.8194 18.5 10.8194 18.5 10.8194 18.5C10.8194 18.5 10.8194 18.5 10.8194 18.5C10.8194 18.5 10.8194 18.5 10.8194 18.5C10.8194 18.5 10.8194 18.5 10.8194 18.5C10.8194 18.5 10.8194 18.5 10.8194 18.5C10.8194 18.5 10.8194 18.5 10.8194 18.5C10.8194 18.5 10.8194 18.5 10.8194 18.5C10.8194 18.5 10.8194 18.5 10.8194 18.5C10.8194 18.5 10.8194 18.5 10.8194 18.5C10.8194 18.5 10.8194 18.5 10.8194 18.5C10.8194 18.5 10.8194 18.5 10.8194 18.5C10.8194 18.5 10.8194 18.5 10.8194 18.5C10.8194 18.5 10.8194 18.5 10.8194 18.5C10.8194 18.5 10.8194 18.5 10.8194 18.5C10.8194 18.5 10.8194 18.5 10.8194 18.5C10.8194 18.5 10.8194 18.5 10.8194 18.5C10.8194 18.5 10.8194 18.5 10.8194 18.5C10.8194 18.5 10.8194 18.5 10.8194 18.5C10.8194 18.5 10.8194 18.5 10.8194 18.5C10.8194 18.5 10.8194 18.5 10.8194 18.5C10.8194 18.5 10.8194 18.5 10.8194 18.5C10.8194 18.5 10.8194 18.5 10.8194 18.5C10.8194 18.5 10.8194 18.5 10.8194 18.5C10.8194 18.5 10.8194 18.5 10.8194 18.5C10.8194 18.5 10.8194 18.5 10.8194 18.5C10.8194 18.5 10.8194 18.5 10.8194 18.5C10.8194 18.5 10.8194 18.5 10.8194 18.5C10.8194 18.5 10.8194 18.5 10.8194 18.5C10.8194 18.5 10.8194 18.5 10.8194 18.5C10.8194 18.5 10.8194 18.5 10.8194 18.5C10.8194 18.5 10.8194 18.5 10.8194 18.5C10.8194 18.5 10.8194 18.5 10.8194 18.5C10.8194 18.5 10.8194 18.5 10.8194 18.5C10.8194 18.5 10.8193 18.5 10.8193 18.5C10.8193 18.5 10.8193 18.5 10.8193 18.5C10.8193 18.5 10.8193 18.5 10.8193 18.5C10.8193 18.5 10.8193 18.5 10.8193 18.5C10.8193 18.5 10.8193 18.5 10.8193 18.5C10.8193 18.5 10.8193 18.5 10.8193 18.5C10.8193 18.5 10.8193 18.5 10.8193 18.5C10.8193 18.5 10.8193 18.5 10.8193 18.5C10.8193 18.5 10.8193 18.5 10.8193 18.5C10.8193 18.5 10.8193 18.5 10.8193 18.5C10.8193 18.5 10.8193 18.5 10.8193 18.5C10.8193 18.5 10.8193 18.5 10.8193 18.5C10.8193 18.5 10.8193 18.5 10.8193 18.5C10.8193 18.5 10.8193 18.5 10.8193 18.5C10.8193 18.5 10.8193 18.5 10.8193 18.5C10.8193 18.5 10.8193 18.5 10.8193 18.5C10.8193 18.5 10.8193 18.5 10.8193 18.5C10.8193 18.5 10.8193 18.5 10.8193 18.5C10.8193 18.5 10.8193 18.5 10.8193 18.5C10.8193 18.5 10.8193 18.5 10.8193 18.5C10.8193 18.5 10.8193 18.5 10.8193 18.5C10.8193 18.5 10.8193 18.5 10.8193 18.5C10.8193 18.5 10.8193 18.5 10.8193 18.5C10.8193 18.5 10.8193 18.5 10.8193 18.5C10.8193 18.5 10.8193 18.5 10.8193 18.5C10.8193 18.5 10.8193 18.5 10.8193 18.5C10.8193 18.5 10.8193 18.5 10.8193 18.5C10.8193 18.5 10.8193 18.5 10.8193 18.5C10.8193 18.5 10.8193 18.5 10.8193 18.5C10.8193 18.5 10.8193 18.5 10.8193 18.5C10.8193 18.5 10.8193 18.5 10.8193 18.5C10.8193 18.5 10.8193 18.5 10.8193 18.5C10.8193 18.5 10.8193 18.5 10.8193 18.5C10.8193 18.5 10.8193 18.5 10.8193 18.5C10.8193 18.5 10.8193 18.5 10.8193 18.5C10.8193 18.5 10.8193 18.5 10.8193 18.5C10.8193 18.5 10.8193 18.5 10.8193 18.5C10.8192 18.5 10.8192 18.5 10.8192 18.5C10.8192 18.5 10.8192 18.5 10.8192 18.5C10.8192 18.5 10.8192 18.5 10.8192 18.5C10.8192 18.5 10.8192 18.5 10.8192 18.5C10.8192 18.5 10.8192 18.5 10.8192 18.5C10.8192 18.5 10.8192 18.5 10.8192 18.5C10.8192 18.5 10.8192 18.5 10.8192 18.5C10.8192 18.5 10.8192 18.5 10.8192 18.5C10.8192 18.5 10.8192 18.5 10.8192 18.5C10.8192 18.5 10.8192 18.5 10.8192 18.5C10.8192 18.5 10.8192 18.5 10.8192 18.5C10.8192 18.5 10.8192 18.5 10.8192 18.5C10.8192 18.5 10.8192 18.5 10.8192 18.5C10.8192 18.5 10.8192 18.5 10.8192 18.5C10.8192 18.5 10.8192 18.5 10.8192 18.5C10.8192 18.5 10.8192 18.5 10.8192 18.5C10.8192 18.5 10.8192 18.5 10.8192 18.5C10.8192 18.5 10.8192 18.5 10.8192 18.5C10.8192 18.5 10.8192 18.5 10.8192 18.5C10.8192 18.5 10.8192 18.5 10.8192 18.5C10.8192 18.5 10.8192 18.5 10.8192 18.5C10.8192 18.5 10.8192 18.5 10.8192 18.5C10.8192 18.5 10.8192 18.5 10.8192 18.5C10.8192 18.5 10.8192 18.5 10.8192 18.5C10.8192 18.5 10.8192 18.5 10.8192 18.5C10.8192 18.5 10.8192 18.5 10.8192 18.5C10.8192 18.5 10.8192 18.5 10.8192 18.5C10.8192 18.5 10.8192 18.5 10.8192 18.5C10.8192 18.5 10.8192 18.5 10.8192 18.5C10.8192 18.5 10.8192 18.5 10.8192 18.5C10.8192 18.5 10.8192 18.5 10.8192 18.5C10.8192 18.5 10.8192 18.5 10.8192 18.5C10.8192 18.5 10.8192 18.5 10.8192 18.5C10.8192 18.5 10.8192 18.5 10.8192 18.5C10.8192 18.5 10.8192 18.5 10.8192 18.5C10.8192 18.5 10.8192 18.5 10.8192 18.5C10.8192 18.5 10.8191 18.5 10.8191 18.5C10.8191 18.5 10.8191 18.5 10.8191 18.5C10.8191 18.5 10.8191 18.5 10.8191 18.5C10.8191 18.5 10.8191 18.5 10.8191 18.5C10.8191 18.5 10.8191 18.5 10.8191 18.5C10.8191 18.5 10.8191 18.5 10.8191 18.5C10.8191 18.5 10.8191 18.5 10.8191 18.5C10.8191 18.5 10.8191 18.5 10.8191 18.5C10.8191 18.5 10.8191 18.5 10.8191 18.5C10.8191 18.5 10.8191 18.5 10.8191 18.5C10.8191 18.5 10.8191 18.5 10.8191 18.5C10.8191 18.5 10.8191 18.5 10.8191 18.5C10.8191 18.5 10.8191 18.5 10.8191 18.5C10.8191 18.5 10.8191 18.5 10.8191 18.5C10.8191 18.5 10.8191 18.5 10.8191 18.5C10.8191 18.5 10.8191 18.5 10.8191 18.5C10.8191 18.5 10.8191 18.5 10.8191 18.5C10.8191 18.5 10.8191 18.5 10.8191 18.5C10.8191 18.5 10.8191 18.5 10.8191 18.5C10.8191 18.5 10.8191 18.5 10.8191 18.5C10.8191 18.5 10.8191 18.5 10.8191 18.5C10.8191 18.5 10.8191 18.5 10.8191 18.5C10.8191 18.5 10.8191 18.5 10.8191 18.5C10.8191 18.5 10.8191 18.5 10.8191 18.5C10.8191 18.5 10.8191 18.5 10.8191 18.5C10.8191 18.5 10.8191 18.5 10.8191 18.5C10.8191 18.5 10.8191 18.5 10.8191 18.5C10.8191 18.5 10.8191 18.5 10.8191 18.5C10.8191 18.5 10.8191 18.5 10.8191 18.5C10.8191 18.5 10.8191 18.5 10.8191 18.5C10.8191 18.5 10.8191 18.5 10.8191 18.5C10.8191 18.5 10.8191 18.5 10.8191 18.5C10.8191 18.5 10.8191 18.5 10.8191 18.5C10.8191 18.5 10.8191 18.5 10.8191 18.5C10.8191 18.5 10.8191 18.5 10.8191 18.5C10.8191 18.5 10.8191 18.5 10.8191 18.5C10.8191 18.5 10.8191 18.5 10.8191 18.5C10.819 18.5 10.819 18.5 10.819 18.5C10.819 18.5 10.819 18.5 10.819 18.5C10.819 18.5 10.819 18.5 10.819 18.5C10.819 18.5 10.819 18.5 10.819 18.5C10.819 18.5 10.819 18.5 10.819 18.5C10.819 18.5 10.819 18.5 10.819 18.5C10.819 18.5 10.819 18.5 10.819 18.5C10.819 18.5 10.819 18.5 10.819 18.5C10.819 18.5 10.819 18.5 10.819 18.5C10.819 18.5 10.819 18.5 10.819 18.5C10.819 18.5 10.819 18.5 10.819 18.5C10.819 18.5 10.819 18.5 10.819 18.5C10.819 18.5 10.819 18.5 10.819 18.5C10.819 18.5 10.819 18.5 10.819 18.5C10.819 18.5 10.819 18.5 10.819 18.5C10.819 18.5 10.819 18.5 10.819 18.5C10.819 18.5 10.819 18.5 10.819 18.5C10.819 18.5 10.819 18.5 10.819 18.5C10.819 18.5 10.819 18.5 10.819 18.5C10.819 18.5 10.819 18.5 10.819 18.5C10.819 18.5 10.819 18.5 10.819 18.5C10.819 18.5 10.819 18.5 10.819 18.5C10.819 18.5 10.819 18.5 10.819 18.5C10.819 18.5 10.819 18.5 10.819 18.5C10.819 18.5 10.819 18.5 10.819 18.5C10.819 18.5 10.819 18.5 10.819 18.5C10.819 18.5 10.819 18.5 10.819 18.5C10.819 18.5 10.819 18.5 10.819 18.5C10.819 18.5 10.819 18.5 10.819 18.5C10.819 18.5 10.819 18.5 10.819 18.5C10.819 18.5 10.819 18.5 10.819 18.5C10.819 18.5 10.819 18.5 10.819 18.5C10.819 18.5 10.819 18.5 10.819 18.5C10.819 18.5 10.819 18.5 10.819 18.5C10.819 18.5 10.819 18.5 10.819 18.5C10.819 18.5 10.819 18.5 10.819 18.5C10.819 18.5 10.819 18.5 10.8189 18.5C10.8189 18.5 10.8189 18.5 10.8189 18.5C10.8189 18.5 10.8189 18.5 10.8189 18.5C10.8189 18.5 10.8189 18.5 10.8189 18.5C10.8189 18.5 10.8189 18.5 10.8189 18.5C10.8189 18.5 10.8189 18.5 10.8189 18.5C10.8189 18.5 10.8189 18.5 10.8189 18.5C10.8189 18.5 10.8189 18.5 10.8189 18.5C10.8189 18.5 10.8189 18.5 10.8189 18.5C10.8189 18.5 10.8189 18.5 10.8189 18.5C10.8189 18.5 10.8189 18.5 10.8189 18.5C10.8189 18.5 10.8189 18.5 10.8189 18.5C10.8189 18.5 10.8189 18.5 10.8189 18.5C10.8189 18.5 10.8189 18.5 10.8189 18.5C10.8189 18.5 10.8189 18.5 10.8189 18.5C10.8189 18.5 10.8189 18.5 10.8189 18.5C10.8189 18.5 10.8189 18.5 10.8189 18.5C10.8189 18.5 10.8189 18.5 10.8189 18.5C10.8189 18.5 10.8189 18.5 10.8189 18.5C10.8189 18.5 10.8189 18.5 10.8189 18.5C10.8189 18.5 10.8189 18.5 10.8189 18.5C10.8189 18.5 10.8189 18.5 10.8189 18.5C10.8189 18.5 10.8189 18.5 10.8189 18.5C10.8189 18.5 10.8189 18.5 10.8189 18.5C10.8189 18.5 10.8189 18.5 10.8189 18.5C10.8189 18.5 10.8189 18.5 10.8189 18.5C10.8189 18.5 10.8189 18.5 10.8189 18.5C10.8189 18.5 10.8189 18.5 10.8189 18.5C10.8189 18.5 10.8189 18.5 10.8189 18.5C10.8189 18.5 10.8189 18.5 10.8189 18.5C10.8189 18.5 10.8189 18.5 10.8189 18.5C10.8189 18.5 10.8189 18.5 10.8189 18.5C10.8189 18.5 10.8189 18.5 10.8189 18.5C10.8189 18.5 10.8189 18.5 10.8189 18.5C10.8189 18.5 10.8189 18.5 10.8189 18.5C10.8189 18.5 10.8189 18.5 10.8189 18.5C10.8189 18.5 10.8189 18.5 10.8189 18.5C10.8189 18.5 10.8188 18.5 10.8188 18.5C10.8188 18.5 10.8188 18.5 10.8188 18.5C10.8188 18.5 10.8188 18.5 10.8188 18.5C10.8188 18.5 10.8188 18.5 10.8188 18.5C10.8188 18.5 10.8188 18.5 10.8188 18.5C10.8188 18.5 10.8188 18.5 10.8188 18.5C10.8188 18.5 10.8188 18.5 10.8188 18.5C10.8188 18.5 10.8188 18.5 10.8188 18.5C10.8188 18.5 10.8188 18.5 10.8188 18.5C10.8188 18.5 10.8188 18.5 10.8188 18.5C10.8188 18.5 10.8188 18.5 10.8188 18.5C10.8188 18.5 10.8188 18.5 10.8188 18.5C10.8188 18.5 10.8188 18.5 10.8188 18.5C10.8188 18.5 10.8188 18.5 10.8188 18.5C10.8188 18.5 10.8188 18.5 10.8188 18.5C10.8188 18.5 10.8188 18.5 10.8188 18.5V19.5ZM10.8202 19.5C10.8405 19.5 10.8584 19.4988 10.8734 19.4972C10.8883 19.4956 10.901 19.4936 10.9107 19.4919C10.9202 19.4901 10.928 19.4884 10.9326 19.4874C10.935 19.4868 10.937 19.4864 10.9382 19.4861C10.9388 19.4859 10.9394 19.4858 10.9397 19.4857C10.94 19.4857 10.9403 19.4856 10.9403 19.4856C10.9411 19.4854 10.9379 19.4862 10.934 19.4871C10.9298 19.488 10.9226 19.4896 10.9135 19.4912C10.9043 19.4929 10.8921 19.4948 10.8776 19.4964C10.8631 19.4979 10.8456 19.4991 10.8258 19.4991V18.4991C10.8055 18.4991 10.7876 18.5003 10.7726 18.5019C10.7577 18.5035 10.745 18.5055 10.7353 18.5072C10.7257 18.509 10.718 18.5107 10.7134 18.5117C10.711 18.5123 10.709 18.5127 10.7078 18.513C10.7072 18.5132 10.7066 18.5133 10.7063 18.5134C10.706 18.5134 10.7057 18.5135 10.7057 18.5135C10.7049 18.5137 10.7081 18.5129 10.712 18.512C10.7162 18.5111 10.7234 18.5095 10.7326 18.5079C10.7418 18.5062 10.754 18.5043 10.7684 18.5027C10.7829 18.5012 10.8004 18.5 10.8202 18.5V19.5ZM10.7974 19.4983C10.803 19.4986 10.8251 19.5 10.8496 19.5V18.5C10.8549 18.5 10.8584 18.5001 10.859 18.5002C10.8591 18.5002 10.8587 18.5002 10.8542 18.4999L10.7974 19.4983ZM10.8496 19.5C11.1272 19.5 11.3667 19.3796 11.5345 19.2123L10.8285 18.5041C10.8265 18.5061 10.8265 18.5053 10.83 18.5038C10.8341 18.502 10.8412 18.5 10.8496 18.5V19.5ZM11.4521 19.2786L16.617 15.9541L16.0758 15.1132L10.9109 18.4378L11.4521 19.2786ZM16.0806 15.9571L21.4884 19.351L22.02 18.504L16.6122 15.1101L16.0806 15.9571ZM21.4895 19.3517C21.6468 19.4499 21.8274 19.5 22.0083 19.5V18.5C22.0111 18.5 22.0145 18.5006 22.0189 18.5034L21.4895 19.3517ZM22.0083 19.5C22.1088 19.5 22.2099 19.4844 22.3069 19.4534L22.0033 18.5007C22.0043 18.5003 22.0056 18.5 22.0083 18.5V19.5ZM22.3083 19.453C22.5818 19.365 22.808 19.1588 22.9129 18.8829L21.9782 18.5275C21.9852 18.509 21.997 18.5027 22.0019 18.5011L22.3083 19.453ZM22.9127 18.8834L29.4375 1.78381L28.5032 1.42731L21.9784 18.5269L22.9127 18.8834ZM29.4352 1.78963C29.449 1.7549 29.4605 1.71951 29.4697 1.68364L28.5017 1.43296C28.5026 1.42949 28.5038 1.42562 28.5054 1.42149L29.4352 1.78963ZM29.4677 1.69132C29.4724 1.67434 29.4755 1.65973 29.4776 1.64892C29.4797 1.63843 29.4811 1.62983 29.4816 1.62626C29.4818 1.62529 29.4819 1.62443 29.482 1.62391C29.4821 1.62319 29.4821 1.62318 29.4821 1.62292C29.4822 1.62257 29.482 1.62359 29.4818 1.62513C29.4813 1.62802 29.4799 1.63614 29.4776 1.64679L28.5013 1.4302C28.4982 1.444 28.4963 1.45533 28.4953 1.46147C28.4947 1.46463 28.4943 1.46728 28.4941 1.46858C28.494 1.46915 28.4939 1.46996 28.4939 1.47007C28.4938 1.47037 28.4938 1.47034 28.4939 1.47019C28.4939 1.46995 28.4947 1.4647 28.4961 1.45757C28.4976 1.45012 28.5 1.43888 28.5037 1.42527L29.4677 1.69132ZM29.4706 1.67437C29.4762 1.65478 29.4797 1.6383 29.4817 1.62806C29.4836 1.61829 29.4851 1.60942 29.4854 1.60782L28.5 1.43766C28.4993 1.44146 28.4999 1.43799 28.5008 1.43351C28.5018 1.42856 28.5041 1.41726 28.5082 1.40262L29.4706 1.67437ZM23.3039 3.98818L12.1186 11.9287L12.6975 12.7442L23.8827 4.8036L23.3039 3.98818ZM12.1164 11.9303C12.0794 11.9569 12.0516 11.9828 12.0356 11.9982C12.0278 12.0057 12.0207 12.0129 12.0174 12.0162C12.0153 12.0183 12.0142 12.0194 12.0132 12.0204C12.0123 12.0213 12.0121 12.0215 12.0123 12.0213L12.7069 12.7407C12.7147 12.7332 12.7218 12.726 12.7252 12.7227C12.7272 12.7206 12.7283 12.7195 12.7293 12.7185C12.7302 12.7176 12.7304 12.7174 12.7302 12.7176C12.7299 12.7179 12.7268 12.7209 12.7219 12.7251C12.7169 12.7294 12.7094 12.7356 12.6997 12.7426L12.1164 11.9303ZM12.0269 12.0077C12.0302 12.0048 12.0326 12.0028 12.0316 12.0037C12.0313 12.0039 12.0312 12.004 12.0307 12.0044C12.0302 12.0048 12.0296 12.0053 12.0289 12.006C12.0274 12.0072 12.0252 12.0091 12.0226 12.0113C12.0129 12.0197 11.9907 12.0394 11.9663 12.0672L12.7184 12.7263C12.6991 12.7483 12.6824 12.7628 12.6786 12.7661C12.6771 12.7674 12.6752 12.769 12.6785 12.7662C12.6805 12.7645 12.6859 12.7599 12.6922 12.7543L12.0269 12.0077ZM11.979 12.0532C11.9579 12.0756 11.9392 12.0975 11.9219 12.1195L12.7077 12.738C12.7081 12.7374 12.7072 12.7386 12.7056 12.7403L11.979 12.0532ZM11.9199 12.122C11.9031 12.1437 11.8905 12.1628 11.8838 12.1731C11.8807 12.1779 11.8773 12.1832 11.8765 12.1845C11.875 12.1869 11.8751 12.1867 11.8757 12.1858L12.7092 12.7383C12.7135 12.7317 12.7172 12.726 12.7193 12.7227C12.7209 12.7203 12.7209 12.7203 12.7219 12.7187C12.7225 12.7178 12.7227 12.7174 12.7228 12.7173C12.7233 12.7165 12.7182 12.7245 12.7097 12.7354L11.9199 12.122ZM11.871 12.1929C11.8377 12.2451 11.8067 12.304 11.7816 12.3704L12.7175 12.7229C12.7148 12.7299 12.7127 12.733 12.7138 12.7312L11.871 12.1929ZM11.785 12.3616C11.7932 12.3412 11.8011 12.3256 11.8056 12.3171C11.8078 12.3129 11.8096 12.3097 11.8102 12.3086C11.8105 12.308 11.8107 12.3076 11.8106 12.3079C11.8106 12.3079 11.8106 12.308 11.8105 12.308C11.8105 12.3081 11.8104 12.3082 11.8103 12.3084C11.8102 12.3086 11.81 12.309 11.8097 12.3095C11.8082 12.3122 11.8012 12.3246 11.7935 12.3404C11.7853 12.3573 11.7747 12.3813 11.7652 12.411L12.718 12.7147C12.7095 12.7415 12.7 12.7628 12.6932 12.7769C12.6897 12.784 12.6868 12.7897 12.6848 12.7934C12.6828 12.797 12.6813 12.7997 12.6811 12.8C12.681 12.8002 12.6809 12.8004 12.6813 12.7997C12.6815 12.7993 12.6821 12.7983 12.6828 12.797C12.6842 12.7946 12.6866 12.7901 12.6896 12.7846C12.6955 12.7734 12.7047 12.755 12.7141 12.7317L11.785 12.3616ZM11.7576 12.4376C11.7665 12.4032 11.7783 12.3728 11.7909 12.3466C11.8033 12.3207 11.8162 12.2997 11.827 12.2837C11.8377 12.268 11.8471 12.256 11.8528 12.249C11.8557 12.2454 11.8581 12.2426 11.8596 12.2409C11.8608 12.2394 11.862 12.2381 11.8617 12.2384C11.8617 12.2385 11.8616 12.2386 11.8615 12.2387C11.8614 12.2388 11.8612 12.239 11.861 12.2393C11.8606 12.2397 11.8599 12.2405 11.8591 12.2414C11.8576 12.2433 11.855 12.2463 11.852 12.2501C11.846 12.2574 11.8363 12.2697 11.8254 12.2858C11.8143 12.3021 11.8012 12.3236 11.7885 12.3498C11.7758 12.3764 11.7638 12.4072 11.7548 12.4421L12.7229 12.6927C12.714 12.7271 12.7022 12.7575 12.6896 12.7836C12.6771 12.8095 12.6642 12.8306 12.6534 12.8465C12.6428 12.8622 12.6333 12.8742 12.6276 12.8812C12.6247 12.8848 12.6223 12.8876 12.6209 12.8893C12.6196 12.8908 12.6185 12.8921 12.6188 12.8918C12.6188 12.8918 12.6188 12.8917 12.619 12.8916C12.6191 12.8914 12.6192 12.8912 12.6194 12.891C12.6199 12.8905 12.6205 12.8897 12.6213 12.8888C12.6229 12.887 12.6254 12.8839 12.6285 12.8802C12.6345 12.8728 12.6442 12.8605 12.6551 12.8444C12.6661 12.8281 12.6792 12.8067 12.6919 12.7804C12.7047 12.7538 12.7166 12.723 12.7257 12.6882L11.7576 12.4376ZM11.7624 12.4155L10.4804 16.4383L11.4332 16.7419L12.7152 12.7192L11.7624 12.4155ZM11.4483 16.4984L10.4325 11.0559L9.44947 11.2394L10.4653 16.6818L11.4483 16.4984ZM10.1626 11.5959L23.815 4.84408L23.3717 3.9477L9.71933 10.6995L10.1626 11.5959ZM12.1565 17.6057L13.4273 13.5528L12.4731 13.2536L11.2023 17.3065L12.1565 17.6057ZM12.6844 13.8267L14.6629 15.0686L15.1945 14.2216L13.216 12.9797L12.6844 13.8267ZM14.663 15.0686L15.2289 15.4238L15.7604 14.5767L15.1945 14.2216L14.663 15.0686ZM15.2241 14.5798L13.3015 15.8172L13.8427 16.6581L15.7653 15.4207L15.2241 14.5798ZM13.3015 15.8172L11.4087 17.0357L11.95 17.8765L13.8428 16.658L13.3015 15.8172ZM25.0406 2.11061L9.20279 9.94315L9.64608 10.8395L25.4839 3.00699L25.0406 2.11061ZM9.65134 9.94579L3.05943 6.58879L2.60563 7.4799L9.19753 10.8369L9.65134 9.94579ZM2.93037 7.52468L25.3601 3.04914L25.1644 2.06847L2.73469 6.54401L2.93037 7.52468ZM22.0386 17.4423L14.857 12.9357L14.3254 13.7828L21.5071 18.2894L22.0386 17.4423ZM14.8571 12.9358L13.7694 12.253L13.2377 13.0999L14.3253 13.7827L14.8571 12.9358ZM13.793 13.0841L27.8505 3.10406L27.2716 2.28866L13.2141 12.2687L13.793 13.0841ZM27.0939 2.51811L21.3057 17.6876L22.24 18.0441L28.0282 2.87461L27.0939 2.51811Z" fill="#000000"/>
</svg>
