<svg width="93" height="24" viewBox="0 0 93 24" fill="none" xmlns="http://www.w3.org/2000/svg">
<path fill-rule="evenodd" clip-rule="evenodd" d="M24 12C24 18.6272 18.6272 24 12 24C5.37285 24 0 18.6272 0 12C0 5.37285 5.37285 0 12 0C18.6272 0 24 5.37285 24 12Z" fill="#55ACEE"/>
<path fill-rule="evenodd" clip-rule="evenodd" d="M18.1916 8.35076C17.7441 8.54239 17.262 8.67239 16.7572 8.73041C17.273 8.43151 17.6686 7.95897 17.8561 7.39579C17.3731 7.67176 16.8382 7.87283 16.2696 7.98101C15.8138 7.51185 15.1644 7.21924 14.4458 7.21924C13.0658 7.21924 11.948 8.29993 11.948 9.63163C11.948 9.82055 11.9697 10.0052 12.0125 10.1818C9.93677 10.0808 8.09573 9.12041 6.8641 7.66029C6.64847 8.017 6.52575 8.43151 6.52575 8.87346C6.52575 9.7108 6.96679 10.4496 7.63628 10.8819C7.22691 10.8695 6.84221 10.7607 6.50479 10.5796C6.50479 10.5902 6.50479 10.5999 6.50479 10.6104C6.50479 11.7788 7.36616 12.7541 8.5086 12.9756C8.29949 13.0309 8.0785 13.0608 7.85099 13.0608C7.69008 13.0608 7.53359 13.0458 7.3806 13.0177C7.69916 13.9762 8.62154 14.6737 9.71485 14.693C8.85976 15.3405 7.78276 15.7254 6.61214 15.7254C6.41001 15.7254 6.21091 15.7148 6.01624 15.6921C7.12142 16.3765 8.43408 16.7761 9.84479 16.7761C14.4395 16.7761 16.9528 13.0993 16.9528 9.91119C16.9528 9.80661 16.95 9.70293 16.9456 9.59924C17.4339 9.25918 17.857 8.8341 18.1916 8.35076Z" fill="white"/>
<path d="M57.0322 8.12695H53.833V17H52.5273V8.12695H49.335V7.04688H57.0322V8.12695ZM64.4629 15.2568L65.8848 9.60352H67.1494L64.9961 17H63.9707L62.1729 11.3945L60.4229 17H59.3975L57.251 9.60352H58.5088L59.9648 15.1406L61.6875 9.60352H62.7061L64.4629 15.2568ZM69.8154 17H68.5508V9.60352H69.8154V17ZM68.4482 7.6416C68.4482 7.43652 68.5098 7.26335 68.6328 7.12207C68.7604 6.98079 68.9473 6.91016 69.1934 6.91016C69.4395 6.91016 69.6263 6.98079 69.7539 7.12207C69.8815 7.26335 69.9453 7.43652 69.9453 7.6416C69.9453 7.84668 69.8815 8.01758 69.7539 8.1543C69.6263 8.29102 69.4395 8.35938 69.1934 8.35938C68.9473 8.35938 68.7604 8.29102 68.6328 8.1543C68.5098 8.01758 68.4482 7.84668 68.4482 7.6416ZM73.5615 7.8125V9.60352H74.9424V10.5811H73.5615V15.168C73.5615 15.4642 73.623 15.6875 73.7461 15.8379C73.8691 15.9837 74.0788 16.0566 74.375 16.0566C74.5208 16.0566 74.7214 16.0293 74.9766 15.9746V17C74.6439 17.0911 74.3203 17.1367 74.0059 17.1367C73.4408 17.1367 73.0146 16.9658 72.7275 16.624C72.4404 16.2822 72.2969 15.7969 72.2969 15.168V10.5811H70.9502V9.60352H72.2969V7.8125H73.5615ZM78.1416 7.8125V9.60352H79.5225V10.5811H78.1416V15.168C78.1416 15.4642 78.2031 15.6875 78.3262 15.8379C78.4492 15.9837 78.6589 16.0566 78.9551 16.0566C79.1009 16.0566 79.3014 16.0293 79.5566 15.9746V17C79.224 17.0911 78.9004 17.1367 78.5859 17.1367C78.0208 17.1367 77.5947 16.9658 77.3076 16.624C77.0205 16.2822 76.877 15.7969 76.877 15.168V10.5811H75.5303V9.60352H76.877V7.8125H78.1416ZM84.0752 17.1367C83.0726 17.1367 82.2568 16.8086 81.6279 16.1523C80.999 15.4915 80.6846 14.6097 80.6846 13.5068V13.2744C80.6846 12.5407 80.8236 11.8867 81.1016 11.3125C81.3841 10.7337 81.776 10.2826 82.2773 9.95898C82.7832 9.63086 83.3301 9.4668 83.918 9.4668C84.8796 9.4668 85.627 9.78353 86.1602 10.417C86.6934 11.0505 86.96 11.9574 86.96 13.1377V13.6641H81.9492C81.9674 14.3932 82.1794 14.9834 82.585 15.4346C82.9951 15.8812 83.5146 16.1045 84.1436 16.1045C84.5902 16.1045 84.9684 16.0133 85.2783 15.8311C85.5882 15.6488 85.8594 15.4072 86.0918 15.1064L86.8643 15.708C86.2445 16.6605 85.3148 17.1367 84.0752 17.1367ZM83.918 10.5059C83.4076 10.5059 82.9792 10.6927 82.6328 11.0664C82.2865 11.4355 82.0723 11.9551 81.9902 12.625H85.6953V12.5293C85.6589 11.8867 85.4857 11.39 85.1758 11.0391C84.8659 10.6836 84.4466 10.5059 83.918 10.5059ZM92.0049 10.7383C91.8135 10.7064 91.6061 10.6904 91.3828 10.6904C90.5534 10.6904 89.9906 11.0436 89.6943 11.75V17H88.4297V9.60352H89.6602L89.6807 10.458C90.0954 9.7972 90.6833 9.4668 91.4443 9.4668C91.6904 9.4668 91.8773 9.4987 92.0049 9.5625V10.7383Z" fill="#EEEEEE"/>
</svg>
